<svg version="1.1" xmlns="http://www.w3.org/2000/svg" viewBox="0 0 1019 1204.9453449418174" width="1019" height="1204.9453449418174">
  <!-- svg-source:excalidraw -->
  
  <defs>
    <style class="style-fonts">
      @font-face {
        font-family: "Virgil";
        src: url("https://excalidraw.com/Virgil.woff2");
      }
      @font-face {
        font-family: "Cascadia";
        src: url("https://excalidraw.com/Cascadia.woff2");
      }
    </style>
    
  </defs>
  <rect x="0" y="0" width="1019" height="1204.9453449418174" fill="#ffffff"></rect><g stroke-linecap="round" transform="translate(20 10) rotate(0 203 163)"><path d="M-0.99 -0.28 C107.36 1.68, 215.14 0.4, 406.31 0.96 M-0.03 -0.22 C154.23 -0.47, 307.95 -0.86, 406.14 0.18 M405.03 -1.22 C403.45 111.55, 403.4 221.84, 404.74 326.63 M406.08 -0.27 C407.36 74.84, 407.12 148.06, 405.91 325.36 M407.01 327.09 C270.72 325.83, 134.05 324.54, -0.49 325.63 M406.49 325.5 C299.42 326.85, 192.77 326.74, -0.05 326.15 M0.58 327.06 C-1.66 259.87, -2.97 193.36, -0.84 0.57 M-0.68 326.38 C-0.54 239.1, -1.51 153.76, -0.55 0.41" stroke="#1e1e1e" stroke-width="1" fill="none"></path></g><g stroke-linecap="round" transform="translate(217 154) rotate(0 8 8)"><path d="M16 8 C16 8.46, 15.96 8.93, 15.88 9.39 C15.8 9.85, 15.68 10.3, 15.52 10.74 C15.36 11.17, 15.16 11.6, 14.93 12 C14.7 12.4, 14.43 12.79, 14.13 13.14 C13.83 13.5, 13.5 13.83, 13.14 14.13 C12.79 14.43, 12.4 14.7, 12 14.93 C11.6 15.16, 11.17 15.36, 10.74 15.52 C10.3 15.68, 9.85 15.8, 9.39 15.88 C8.93 15.96, 8.46 16, 8 16 C7.54 16, 7.07 15.96, 6.61 15.88 C6.15 15.8, 5.7 15.68, 5.26 15.52 C4.83 15.36, 4.4 15.16, 4 14.93 C3.6 14.7, 3.21 14.43, 2.86 14.13 C2.5 13.83, 2.17 13.5, 1.87 13.14 C1.57 12.79, 1.3 12.4, 1.07 12 C0.84 11.6, 0.64 11.17, 0.48 10.74 C0.32 10.3, 0.2 9.85, 0.12 9.39 C0.04 8.93, 0 8.46, 0 8 C0 7.54, 0.04 7.07, 0.12 6.61 C0.2 6.15, 0.32 5.7, 0.48 5.26 C0.64 4.83, 0.84 4.4, 1.07 4 C1.3 3.6, 1.57 3.21, 1.87 2.86 C2.17 2.5, 2.5 2.17, 2.86 1.87 C3.21 1.57, 3.6 1.3, 4 1.07 C4.4 0.84, 4.83 0.64, 5.26 0.48 C5.7 0.32, 6.15 0.2, 6.61 0.12 C7.07 0.04, 7.54 0, 8 0 C8.46 0, 8.93 0.04, 9.39 0.12 C9.85 0.2, 10.3 0.32, 10.74 0.48 C11.17 0.64, 11.6 0.84, 12 1.07 C12.4 1.3, 12.79 1.57, 13.14 1.87 C13.5 2.17, 13.83 2.5, 14.13 2.86 C14.43 3.21, 14.7 3.6, 14.93 4 C15.16 4.4, 15.36 4.83, 15.52 5.26 C15.68 5.7, 15.8 6.15, 15.88 6.61 C15.96 7.07, 15.98 7.77, 16 8 C16.02 8.23, 16.02 7.77, 16 8" stroke="none" stroke-width="0" fill="#1e1e1e"></path><path d="M16 8 C16 8.46, 15.96 8.93, 15.88 9.39 C15.8 9.85, 15.68 10.3, 15.52 10.74 C15.36 11.17, 15.16 11.6, 14.93 12 C14.7 12.4, 14.43 12.79, 14.13 13.14 C13.83 13.5, 13.5 13.83, 13.14 14.13 C12.79 14.43, 12.4 14.7, 12 14.93 C11.6 15.16, 11.17 15.36, 10.74 15.52 C10.3 15.68, 9.85 15.8, 9.39 15.88 C8.93 15.96, 8.46 16, 8 16 C7.54 16, 7.07 15.96, 6.61 15.88 C6.15 15.8, 5.7 15.68, 5.26 15.52 C4.83 15.36, 4.4 15.16, 4 14.93 C3.6 14.7, 3.21 14.43, 2.86 14.13 C2.5 13.83, 2.17 13.5, 1.87 13.14 C1.57 12.79, 1.3 12.4, 1.07 12 C0.84 11.6, 0.64 11.17, 0.48 10.74 C0.32 10.3, 0.2 9.85, 0.12 9.39 C0.04 8.93, 0 8.46, 0 8 C0 7.54, 0.04 7.07, 0.12 6.61 C0.2 6.15, 0.32 5.7, 0.48 5.26 C0.64 4.83, 0.84 4.4, 1.07 4 C1.3 3.6, 1.57 3.21, 1.87 2.86 C2.17 2.5, 2.5 2.17, 2.86 1.87 C3.21 1.57, 3.6 1.3, 4 1.07 C4.4 0.84, 4.83 0.64, 5.26 0.48 C5.7 0.32, 6.15 0.2, 6.61 0.12 C7.07 0.04, 7.54 0, 8 0 C8.46 0, 8.93 0.04, 9.39 0.12 C9.85 0.2, 10.3 0.32, 10.74 0.48 C11.17 0.64, 11.6 0.84, 12 1.07 C12.4 1.3, 12.79 1.57, 13.14 1.87 C13.5 2.17, 13.83 2.5, 14.13 2.86 C14.43 3.21, 14.7 3.6, 14.93 4 C15.16 4.4, 15.36 4.83, 15.52 5.26 C15.68 5.7, 15.8 6.15, 15.88 6.61 C15.96 7.07, 15.98 7.77, 16 8 C16.02 8.23, 16.02 7.77, 16 8" stroke="#1e1e1e" stroke-width="1" fill="none"></path></g><g stroke-linecap="round" transform="translate(93 36) rotate(0 129 129)"><path d="M258 129 C258 132.55, 257.85 136.11, 257.56 139.65 C257.27 143.19, 256.83 146.73, 256.24 150.23 C255.66 153.74, 254.92 157.23, 254.05 160.67 C253.18 164.11, 252.16 167.53, 251.01 170.89 C249.86 174.24, 248.56 177.57, 247.13 180.82 C245.71 184.07, 244.14 187.27, 242.45 190.4 C240.76 193.52, 238.94 196.58, 236.99 199.56 C235.05 202.53, 232.98 205.43, 230.8 208.23 C228.62 211.04, 226.31 213.76, 223.91 216.37 C221.5 218.98, 218.98 221.5, 216.37 223.91 C213.76 226.31, 211.04 228.62, 208.23 230.8 C205.43 232.98, 202.53 235.05, 199.56 236.99 C196.58 238.94, 193.52 240.76, 190.4 242.45 C187.27 244.14, 184.07 245.71, 180.82 247.13 C177.57 248.56, 174.24 249.86, 170.89 251.01 C167.53 252.16, 164.11 253.18, 160.67 254.05 C157.23 254.92, 153.74 255.66, 150.23 256.24 C146.73 256.83, 143.19 257.27, 139.65 257.56 C136.11 257.85, 132.55 258, 129 258 C125.45 258, 121.89 257.85, 118.35 257.56 C114.81 257.27, 111.27 256.83, 107.77 256.24 C104.26 255.66, 100.77 254.92, 97.33 254.05 C93.89 253.18, 90.47 252.16, 87.11 251.01 C83.76 249.86, 80.43 248.56, 77.18 247.13 C73.93 245.71, 70.73 244.14, 67.6 242.45 C64.48 240.76, 61.42 238.94, 58.44 236.99 C55.47 235.05, 52.57 232.98, 49.77 230.8 C46.96 228.62, 44.24 226.31, 41.63 223.91 C39.02 221.5, 36.5 218.98, 34.09 216.37 C31.69 213.76, 29.38 211.04, 27.2 208.23 C25.02 205.43, 22.95 202.53, 21.01 199.56 C19.06 196.58, 17.24 193.52, 15.55 190.4 C13.86 187.27, 12.29 184.07, 10.87 180.82 C9.44 177.57, 8.14 174.24, 6.99 170.89 C5.84 167.53, 4.82 164.11, 3.95 160.67 C3.08 157.23, 2.34 153.74, 1.76 150.23 C1.17 146.73, 0.73 143.19, 0.44 139.65 C0.15 136.11, 0 132.55, 0 129 C0 125.45, 0.15 121.89, 0.44 118.35 C0.73 114.81, 1.17 111.27, 1.76 107.77 C2.34 104.26, 3.08 100.77, 3.95 97.33 C4.82 93.89, 5.84 90.47, 6.99 87.11 C8.14 83.76, 9.44 80.43, 10.87 77.18 C12.29 73.93, 13.86 70.73, 15.55 67.6 C17.24 64.48, 19.06 61.42, 21.01 58.44 C22.95 55.47, 25.02 52.57, 27.2 49.77 C29.38 46.96, 31.69 44.24, 34.09 41.63 C36.5 39.02, 39.02 36.5, 41.63 34.09 C44.24 31.69, 46.96 29.38, 49.77 27.2 C52.57 25.02, 55.47 22.95, 58.44 21.01 C61.42 19.06, 64.48 17.24, 67.6 15.55 C70.73 13.86, 73.93 12.29, 77.18 10.87 C80.43 9.44, 83.76 8.14, 87.11 6.99 C90.47 5.84, 93.89 4.82, 97.33 3.95 C100.77 3.08, 104.26 2.34, 107.77 1.76 C111.27 1.17, 114.81 0.73, 118.35 0.44 C121.89 0.15, 125.45 0, 129 0 C132.55 0, 136.11 0.15, 139.65 0.44 C143.19 0.73, 146.73 1.17, 150.23 1.76 C153.74 2.34, 157.23 3.08, 160.67 3.95 C164.11 4.82, 167.53 5.84, 170.89 6.99 C174.24 8.14, 177.57 9.44, 180.82 10.87 C184.07 12.29, 187.27 13.86, 190.4 15.55 C193.52 17.24, 196.58 19.06, 199.56 21.01 C202.53 22.95, 205.43 25.02, 208.23 27.2 C211.04 29.38, 213.76 31.69, 216.37 34.09 C218.98 36.5, 221.5 39.02, 223.91 41.63 C226.31 44.24, 228.62 46.96, 230.8 49.77 C232.98 52.57, 235.05 55.47, 236.99 58.44 C238.94 61.42, 240.76 64.48, 242.45 67.6 C244.14 70.73, 245.71 73.93, 247.13 77.18 C248.56 80.43, 249.86 83.76, 251.01 87.11 C252.16 90.47, 253.18 93.89, 254.05 97.33 C254.92 100.77, 255.66 104.26, 256.24 107.77 C256.83 111.27, 257.27 114.81, 257.56 118.35 C257.85 121.89, 258 125.45, 258 129" stroke="#1e1e1e" stroke-width="1.5" fill="none" stroke-dasharray="8 9"></path></g><g stroke-linecap="round" transform="translate(595 13) rotate(0 203 163)"><path d="M-0.29 0.34 C86.79 3.26, 174.38 1.93, 406.81 0.56 M-0.36 0.17 C154.39 -1.53, 309.23 -1.5, 406.04 0.06 M407.34 0.14 C407.35 129.31, 407.95 259.66, 404.82 324.65 M406.19 0.63 C407.29 125.73, 407.9 250.9, 406.34 326.12 M406.13 324.93 C304.01 327.34, 203.64 325.93, 0.02 325.93 M405.95 326.08 C316.26 326.71, 226.53 326.85, -0.32 325.54 M-1.16 325.12 C0.41 220.25, 0.27 116.81, -0.94 -0.36 M0.31 326.34 C0.73 243.63, 0.47 160.43, -0.16 0.43" stroke="#1e1e1e" stroke-width="1" fill="none"></path></g><g stroke-linecap="round" transform="translate(792 157) rotate(0 8 8)"><path d="M16 8 C16 8.46, 15.96 8.93, 15.88 9.39 C15.8 9.85, 15.68 10.3, 15.52 10.74 C15.36 11.17, 15.16 11.6, 14.93 12 C14.7 12.4, 14.43 12.79, 14.13 13.14 C13.83 13.5, 13.5 13.83, 13.14 14.13 C12.79 14.43, 12.4 14.7, 12 14.93 C11.6 15.16, 11.17 15.36, 10.74 15.52 C10.3 15.68, 9.85 15.8, 9.39 15.88 C8.93 15.96, 8.46 16, 8 16 C7.54 16, 7.07 15.96, 6.61 15.88 C6.15 15.8, 5.7 15.68, 5.26 15.52 C4.83 15.36, 4.4 15.16, 4 14.93 C3.6 14.7, 3.21 14.43, 2.86 14.13 C2.5 13.83, 2.17 13.5, 1.87 13.14 C1.57 12.79, 1.3 12.4, 1.07 12 C0.84 11.6, 0.64 11.17, 0.48 10.74 C0.32 10.3, 0.2 9.85, 0.12 9.39 C0.04 8.93, 0 8.46, 0 8 C0 7.54, 0.04 7.07, 0.12 6.61 C0.2 6.15, 0.32 5.7, 0.48 5.26 C0.64 4.83, 0.84 4.4, 1.07 4 C1.3 3.6, 1.57 3.21, 1.87 2.86 C2.17 2.5, 2.5 2.17, 2.86 1.87 C3.21 1.57, 3.6 1.3, 4 1.07 C4.4 0.84, 4.83 0.64, 5.26 0.48 C5.7 0.32, 6.15 0.2, 6.61 0.12 C7.07 0.04, 7.54 0, 8 0 C8.46 0, 8.93 0.04, 9.39 0.12 C9.85 0.2, 10.3 0.32, 10.74 0.48 C11.17 0.64, 11.6 0.84, 12 1.07 C12.4 1.3, 12.79 1.57, 13.14 1.87 C13.5 2.17, 13.83 2.5, 14.13 2.86 C14.43 3.21, 14.7 3.6, 14.93 4 C15.16 4.4, 15.36 4.83, 15.52 5.26 C15.68 5.7, 15.8 6.15, 15.88 6.61 C15.96 7.07, 15.98 7.77, 16 8 C16.02 8.23, 16.02 7.77, 16 8" stroke="none" stroke-width="0" fill="#1e1e1e"></path><path d="M16 8 C16 8.46, 15.96 8.93, 15.88 9.39 C15.8 9.85, 15.68 10.3, 15.52 10.74 C15.36 11.17, 15.16 11.6, 14.93 12 C14.7 12.4, 14.43 12.79, 14.13 13.14 C13.83 13.5, 13.5 13.83, 13.14 14.13 C12.79 14.43, 12.4 14.7, 12 14.93 C11.6 15.16, 11.17 15.36, 10.74 15.52 C10.3 15.68, 9.85 15.8, 9.39 15.88 C8.93 15.96, 8.46 16, 8 16 C7.54 16, 7.07 15.96, 6.61 15.88 C6.15 15.8, 5.7 15.68, 5.26 15.52 C4.83 15.36, 4.4 15.16, 4 14.93 C3.6 14.7, 3.21 14.43, 2.86 14.13 C2.5 13.83, 2.17 13.5, 1.87 13.14 C1.57 12.79, 1.3 12.4, 1.07 12 C0.84 11.6, 0.64 11.17, 0.48 10.74 C0.32 10.3, 0.2 9.85, 0.12 9.39 C0.04 8.93, 0 8.46, 0 8 C0 7.54, 0.04 7.07, 0.12 6.61 C0.2 6.15, 0.32 5.7, 0.48 5.26 C0.64 4.83, 0.84 4.4, 1.07 4 C1.3 3.6, 1.57 3.21, 1.87 2.86 C2.17 2.5, 2.5 2.17, 2.86 1.87 C3.21 1.57, 3.6 1.3, 4 1.07 C4.4 0.84, 4.83 0.64, 5.26 0.48 C5.7 0.32, 6.15 0.2, 6.61 0.12 C7.07 0.04, 7.54 0, 8 0 C8.46 0, 8.93 0.04, 9.39 0.12 C9.85 0.2, 10.3 0.32, 10.74 0.48 C11.17 0.64, 11.6 0.84, 12 1.07 C12.4 1.3, 12.79 1.57, 13.14 1.87 C13.5 2.17, 13.83 2.5, 14.13 2.86 C14.43 3.21, 14.7 3.6, 14.93 4 C15.16 4.4, 15.36 4.83, 15.52 5.26 C15.68 5.7, 15.8 6.15, 15.88 6.61 C15.96 7.07, 15.98 7.77, 16 8 C16.02 8.23, 16.02 7.77, 16 8" stroke="#1e1e1e" stroke-width="1" fill="none"></path></g><g stroke-linecap="round" transform="translate(668 39) rotate(0 129 129)"><path d="M258 129 C258 132.55, 257.85 136.11, 257.56 139.65 C257.27 143.19, 256.83 146.73, 256.24 150.23 C255.66 153.74, 254.92 157.23, 254.05 160.67 C253.18 164.11, 252.16 167.53, 251.01 170.89 C249.86 174.24, 248.56 177.57, 247.13 180.82 C245.71 184.07, 244.14 187.27, 242.45 190.4 C240.76 193.52, 238.94 196.58, 236.99 199.56 C235.05 202.53, 232.98 205.43, 230.8 208.23 C228.62 211.04, 226.31 213.76, 223.91 216.37 C221.5 218.98, 218.98 221.5, 216.37 223.91 C213.76 226.31, 211.04 228.62, 208.23 230.8 C205.43 232.98, 202.53 235.05, 199.56 236.99 C196.58 238.94, 193.52 240.76, 190.4 242.45 C187.27 244.14, 184.07 245.71, 180.82 247.13 C177.57 248.56, 174.24 249.86, 170.89 251.01 C167.53 252.16, 164.11 253.18, 160.67 254.05 C157.23 254.92, 153.74 255.66, 150.23 256.24 C146.73 256.83, 143.19 257.27, 139.65 257.56 C136.11 257.85, 132.55 258, 129 258 C125.45 258, 121.89 257.85, 118.35 257.56 C114.81 257.27, 111.27 256.83, 107.77 256.24 C104.26 255.66, 100.77 254.92, 97.33 254.05 C93.89 253.18, 90.47 252.16, 87.11 251.01 C83.76 249.86, 80.43 248.56, 77.18 247.13 C73.93 245.71, 70.73 244.14, 67.6 242.45 C64.48 240.76, 61.42 238.94, 58.44 236.99 C55.47 235.05, 52.57 232.98, 49.77 230.8 C46.96 228.62, 44.24 226.31, 41.63 223.91 C39.02 221.5, 36.5 218.98, 34.09 216.37 C31.69 213.76, 29.38 211.04, 27.2 208.23 C25.02 205.43, 22.95 202.53, 21.01 199.56 C19.06 196.58, 17.24 193.52, 15.55 190.4 C13.86 187.27, 12.29 184.07, 10.87 180.82 C9.44 177.57, 8.14 174.24, 6.99 170.89 C5.84 167.53, 4.82 164.11, 3.95 160.67 C3.08 157.23, 2.34 153.74, 1.76 150.23 C1.17 146.73, 0.73 143.19, 0.44 139.65 C0.15 136.11, 0 132.55, 0 129 C0 125.45, 0.15 121.89, 0.44 118.35 C0.73 114.81, 1.17 111.27, 1.76 107.77 C2.34 104.26, 3.08 100.77, 3.95 97.33 C4.82 93.89, 5.84 90.47, 6.99 87.11 C8.14 83.76, 9.44 80.43, 10.87 77.18 C12.29 73.93, 13.86 70.73, 15.55 67.6 C17.24 64.48, 19.06 61.42, 21.01 58.44 C22.95 55.47, 25.02 52.57, 27.2 49.77 C29.38 46.96, 31.69 44.24, 34.09 41.63 C36.5 39.02, 39.02 36.5, 41.63 34.09 C44.24 31.69, 46.96 29.38, 49.77 27.2 C52.57 25.02, 55.47 22.95, 58.44 21.01 C61.42 19.06, 64.48 17.24, 67.6 15.55 C70.73 13.86, 73.93 12.29, 77.18 10.87 C80.43 9.44, 83.76 8.14, 87.11 6.99 C90.47 5.84, 93.89 4.82, 97.33 3.95 C100.77 3.08, 104.26 2.34, 107.77 1.76 C111.27 1.17, 114.81 0.73, 118.35 0.44 C121.89 0.15, 125.45 0, 129 0 C132.55 0, 136.11 0.15, 139.65 0.44 C143.19 0.73, 146.73 1.17, 150.23 1.76 C153.74 2.34, 157.23 3.08, 160.67 3.95 C164.11 4.82, 167.53 5.84, 170.89 6.99 C174.24 8.14, 177.57 9.44, 180.82 10.87 C184.07 12.29, 187.27 13.86, 190.4 15.55 C193.52 17.24, 196.58 19.06, 199.56 21.01 C202.53 22.95, 205.43 25.02, 208.23 27.2 C211.04 29.38, 213.76 31.69, 216.37 34.09 C218.98 36.5, 221.5 39.02, 223.91 41.63 C226.31 44.24, 228.62 46.96, 230.8 49.77 C232.98 52.57, 235.05 55.47, 236.99 58.44 C238.94 61.42, 240.76 64.48, 242.45 67.6 C244.14 70.73, 245.71 73.93, 247.13 77.18 C248.56 80.43, 249.86 83.76, 251.01 87.11 C252.16 90.47, 253.18 93.89, 254.05 97.33 C254.92 100.77, 255.66 104.26, 256.24 107.77 C256.83 111.27, 257.27 114.81, 257.56 118.35 C257.85 121.89, 258 125.45, 258 129" stroke="#1e1e1e" stroke-width="1.5" fill="none" stroke-dasharray="8 9"></path></g><g stroke-linecap="round"><g transform="translate(247 145) rotate(0 27.5 -24)"><path d="M0 0 C12.49 -10.9, 24.98 -21.8, 55 -48 M0 0 C18.33 -16, 36.67 -32, 55 -48" stroke="#1e1e1e" stroke-width="1" fill="none"></path></g><g transform="translate(247 145) rotate(0 27.5 -24)"><path d="M40.51 -21.73 C43.8 -27.7, 47.09 -33.66, 55 -48 M40.51 -21.73 C45.34 -30.49, 50.17 -39.25, 55 -48" stroke="#1e1e1e" stroke-width="1" fill="none"></path></g><g transform="translate(247 145) rotate(0 27.5 -24)"><path d="M27.01 -37.19 C33.37 -39.65, 39.72 -42.1, 55 -48 M27.01 -37.19 C36.34 -40.8, 45.67 -44.4, 55 -48" stroke="#1e1e1e" stroke-width="1" fill="none"></path></g></g><mask></mask><g stroke-linecap="round"><g transform="translate(225 134) rotate(0 3 -42.5)"><path d="M0 0 C2.04 -28.88, 4.08 -57.76, 6 -85 M0 0 C1.22 -17.22, 2.43 -34.44, 6 -85" stroke="#1e1e1e" stroke-width="1" fill="none"></path></g><g transform="translate(225 134) rotate(0 3 -42.5)"><path d="M14.25 -56.16 C11.45 -65.96, 8.64 -75.76, 6 -85 M14.25 -56.16 C12.58 -62, 10.91 -67.84, 6 -85" stroke="#1e1e1e" stroke-width="1" fill="none"></path></g><g transform="translate(225 134) rotate(0 3 -42.5)"><path d="M-6.22 -57.6 C-2.07 -66.91, 2.08 -76.22, 6 -85 M-6.22 -57.6 C-3.74 -63.15, -1.27 -68.7, 6 -85" stroke="#1e1e1e" stroke-width="1" fill="none"></path></g></g><mask></mask><g stroke-linecap="round"><g transform="translate(205 150) rotate(0 -33.5 -27)"><path d="M0 0 C-20 -16.12, -40 -32.24, -67 -54 M0 0 C-15.93 -12.84, -31.86 -25.68, -67 -54" stroke="#1e1e1e" stroke-width="1" fill="none"></path></g><g transform="translate(205 150) rotate(0 -33.5 -27)"><path d="M-38.61 -44.3 C-47.09 -47.19, -55.56 -50.09, -67 -54 M-38.61 -44.3 C-45.36 -46.61, -52.11 -48.91, -67 -54" stroke="#1e1e1e" stroke-width="1" fill="none"></path></g><g transform="translate(205 150) rotate(0 -33.5 -27)"><path d="M-51.49 -28.32 C-56.12 -35.99, -60.75 -43.65, -67 -54 M-51.49 -28.32 C-55.18 -34.43, -58.87 -40.53, -67 -54" stroke="#1e1e1e" stroke-width="1" fill="none"></path></g></g><mask></mask><g stroke-linecap="round"><g transform="translate(196 175) rotate(0 -38 19.5)"><path d="M0 0 C-15.91 8.16, -31.82 16.33, -76 39 M0 0 C-16.91 8.67, -33.81 17.35, -76 39" stroke="#1e1e1e" stroke-width="1" fill="none"></path></g><g transform="translate(196 175) rotate(0 -38 19.5)"><path d="M-55.6 17 C-59.87 21.61, -64.14 26.21, -76 39 M-55.6 17 C-60.14 21.89, -64.68 26.79, -76 39" stroke="#1e1e1e" stroke-width="1" fill="none"></path></g><g transform="translate(196 175) rotate(0 -38 19.5)"><path d="M-46.23 35.26 C-52.46 36.04, -58.7 36.82, -76 39 M-46.23 35.26 C-52.86 36.09, -59.48 36.92, -76 39" stroke="#1e1e1e" stroke-width="1" fill="none"></path></g></g><mask></mask><g stroke-linecap="round"><g transform="translate(221 184) rotate(0 -9 44.5)"><path d="M0 0 C-3.89 19.22, -7.77 38.43, -18 89 M0 0 C-5.95 29.44, -11.91 58.88, -18 89" stroke="#1e1e1e" stroke-width="1" fill="none"></path></g><g transform="translate(221 184) rotate(0 -9 44.5)"><path d="M-22.47 59.33 C-21.5 65.74, -20.54 72.14, -18 89 M-22.47 59.33 C-20.99 69.15, -19.51 78.96, -18 89" stroke="#1e1e1e" stroke-width="1" fill="none"></path></g><g transform="translate(221 184) rotate(0 -9 44.5)"><path d="M-2.35 63.4 C-5.73 68.93, -9.11 74.46, -18 89 M-2.35 63.4 C-7.53 71.87, -12.7 80.34, -18 89" stroke="#1e1e1e" stroke-width="1" fill="none"></path></g></g><mask></mask><g stroke-linecap="round"><g transform="translate(242 187) rotate(0 24 33.5)"><path d="M0 0 C14.15 19.75, 28.3 39.5, 48 67 M0 0 C14.02 19.57, 28.04 39.14, 48 67" stroke="#1e1e1e" stroke-width="1" fill="none"></path></g><g transform="translate(242 187) rotate(0 24 33.5)"><path d="M23.24 50.06 C30.54 55.05, 37.84 60.05, 48 67 M23.24 50.06 C30.47 55.01, 37.71 59.96, 48 67" stroke="#1e1e1e" stroke-width="1" fill="none"></path></g><g transform="translate(242 187) rotate(0 24 33.5)"><path d="M39.92 38.11 C42.3 46.62, 44.68 55.14, 48 67 M39.92 38.11 C42.28 46.55, 44.64 54.99, 48 67" stroke="#1e1e1e" stroke-width="1" fill="none"></path></g></g><mask></mask><g stroke-linecap="round"><g transform="translate(257 165) rotate(0 39 7)"><path d="M0 0 C30.46 5.47, 60.92 10.93, 78 14 M0 0 C19.92 3.58, 39.85 7.15, 78 14" stroke="#1e1e1e" stroke-width="1" fill="none"></path></g><g transform="translate(257 165) rotate(0 39 7)"><path d="M48.44 19.12 C59.98 17.12, 71.53 15.12, 78 14 M48.44 19.12 C55.99 17.81, 63.54 16.5, 78 14" stroke="#1e1e1e" stroke-width="1" fill="none"></path></g><g transform="translate(257 165) rotate(0 39 7)"><path d="M52.07 -1.08 C62.19 4.81, 72.32 10.7, 78 14 M52.07 -1.08 C58.69 2.77, 65.31 6.62, 78 14" stroke="#1e1e1e" stroke-width="1" fill="none"></path></g></g><mask></mask><g stroke-linecap="round"><g transform="translate(612 33) rotate(0 30 0)"><path d="M0 0 C22.97 0, 45.94 0, 60 0 M0 0 C17.71 0, 35.42 0, 60 0" stroke="#1e1e1e" stroke-width="1" fill="none"></path></g><g transform="translate(612 33) rotate(0 30 0)"><path d="M31.81 10.26 C42.6 6.33, 53.39 2.4, 60 0 M31.81 10.26 C40.13 7.23, 48.45 4.2, 60 0" stroke="#1e1e1e" stroke-width="1" fill="none"></path></g><g transform="translate(612 33) rotate(0 30 0)"><path d="M31.81 -10.26 C42.6 -6.33, 53.39 -2.4, 60 0 M31.81 -10.26 C40.13 -7.23, 48.45 -4.2, 60 0" stroke="#1e1e1e" stroke-width="1" fill="none"></path></g></g><mask></mask><g stroke-linecap="round"><g transform="translate(617 78) rotate(0 27.5 0)"><path d="M0 0 C17.57 0, 35.15 0, 55 0 M0 0 C12.89 0, 25.77 0, 55 0" stroke="#1e1e1e" stroke-width="1" fill="none"></path></g><g transform="translate(617 78) rotate(0 27.5 0)"><path d="M29.16 9.41 C37.42 6.4, 45.67 3.4, 55 0 M29.16 9.41 C35.21 7.2, 41.27 5, 55 0" stroke="#1e1e1e" stroke-width="1" fill="none"></path></g><g transform="translate(617 78) rotate(0 27.5 0)"><path d="M29.16 -9.41 C37.42 -6.4, 45.67 -3.4, 55 0 M29.16 -9.41 C35.21 -7.2, 41.27 -5, 55 0" stroke="#1e1e1e" stroke-width="1" fill="none"></path></g></g><mask></mask><g stroke-linecap="round"><g transform="translate(615 143) rotate(0 29.5 0)"><path d="M0 0 C22.02 0, 44.04 0, 59 0 M0 0 C11.82 0, 23.65 0, 59 0" stroke="#1e1e1e" stroke-width="1" fill="none"></path></g><g transform="translate(615 143) rotate(0 29.5 0)"><path d="M31.28 10.09 C41.63 6.32, 51.97 2.56, 59 0 M31.28 10.09 C36.83 8.07, 42.39 6.05, 59 0" stroke="#1e1e1e" stroke-width="1" fill="none"></path></g><g transform="translate(615 143) rotate(0 29.5 0)"><path d="M31.28 -10.09 C41.63 -6.32, 51.97 -2.56, 59 0 M31.28 -10.09 C36.83 -8.07, 42.39 -6.05, 59 0" stroke="#1e1e1e" stroke-width="1" fill="none"></path></g></g><mask></mask><g stroke-linecap="round"><g transform="translate(619 218) rotate(0 32.5 0)"><path d="M0 0 C23.21 0, 46.43 0, 65 0 M0 0 C23.68 0, 47.37 0, 65 0" stroke="#1e1e1e" stroke-width="1" fill="none"></path></g><g transform="translate(619 218) rotate(0 32.5 0)"><path d="M36.81 10.26 C46.88 6.6, 56.95 2.93, 65 0 M36.81 10.26 C47.08 6.52, 57.35 2.78, 65 0" stroke="#1e1e1e" stroke-width="1" fill="none"></path></g><g transform="translate(619 218) rotate(0 32.5 0)"><path d="M36.81 -10.26 C46.88 -6.6, 56.95 -2.93, 65 0 M36.81 -10.26 C47.08 -6.52, 57.35 -2.78, 65 0" stroke="#1e1e1e" stroke-width="1" fill="none"></path></g></g><mask></mask><g stroke-linecap="round"><g transform="translate(616 281) rotate(0 38.5 0)"><path d="M0 0 C21.79 0, 43.58 0, 77 0 M0 0 C16.72 0, 33.44 0, 77 0" stroke="#1e1e1e" stroke-width="1" fill="none"></path></g><g transform="translate(616 281) rotate(0 38.5 0)"><path d="M48.81 10.26 C56.79 7.36, 64.76 4.45, 77 0 M48.81 10.26 C54.93 8.03, 61.05 5.8, 77 0" stroke="#1e1e1e" stroke-width="1" fill="none"></path></g><g transform="translate(616 281) rotate(0 38.5 0)"><path d="M48.81 -10.26 C56.79 -7.36, 64.76 -4.45, 77 0 M48.81 -10.26 C54.93 -8.03, 61.05 -5.8, 77 0" stroke="#1e1e1e" stroke-width="1" fill="none"></path></g></g><mask></mask><g stroke-linecap="round"><g transform="translate(709 314) rotate(0 40.5 0)"><path d="M0 0 C20.79 0, 41.58 0, 81 0 M0 0 C24.13 0, 48.25 0, 81 0" stroke="#1e1e1e" stroke-width="1" fill="none"></path></g><g transform="translate(709 314) rotate(0 40.5 0)"><path d="M52.81 10.26 C60.05 7.63, 67.28 4.99, 81 0 M52.81 10.26 C61.21 7.2, 69.6 4.15, 81 0" stroke="#1e1e1e" stroke-width="1" fill="none"></path></g><g transform="translate(709 314) rotate(0 40.5 0)"><path d="M52.81 -10.26 C60.05 -7.63, 67.28 -4.99, 81 0 M52.81 -10.26 C61.21 -7.2, 69.6 -4.15, 81 0" stroke="#1e1e1e" stroke-width="1" fill="none"></path></g></g><mask></mask><g stroke-linecap="round"><g transform="translate(709 37) rotate(0 29.5 0)"><path d="M0 0 C15.07 0, 30.15 0, 59 0 M0 0 C11.99 0, 23.99 0, 59 0" stroke="#1e1e1e" stroke-width="1" fill="none"></path></g><g transform="translate(709 37) rotate(0 29.5 0)"><path d="M31.28 10.09 C38.36 7.51, 45.44 4.93, 59 0 M31.28 10.09 C36.91 8.04, 42.55 5.99, 59 0" stroke="#1e1e1e" stroke-width="1" fill="none"></path></g><g transform="translate(709 37) rotate(0 29.5 0)"><path d="M31.28 -10.09 C38.36 -7.51, 45.44 -4.93, 59 0 M31.28 -10.09 C36.91 -8.04, 42.55 -5.99, 59 0" stroke="#1e1e1e" stroke-width="1" fill="none"></path></g></g><mask></mask><g stroke-linecap="round"><g transform="translate(868 40) rotate(0 33.5 0)"><path d="M0 0 C23.75 0, 47.49 0, 67 0 M0 0 C25.18 0, 50.36 0, 67 0" stroke="#1e1e1e" stroke-width="1" fill="none"></path></g><g transform="translate(868 40) rotate(0 33.5 0)"><path d="M38.81 10.26 C48.8 6.62, 58.79 2.99, 67 0 M38.81 10.26 C49.4 6.4, 60 2.55, 67 0" stroke="#1e1e1e" stroke-width="1" fill="none"></path></g><g transform="translate(868 40) rotate(0 33.5 0)"><path d="M38.81 -10.26 C48.8 -6.62, 58.79 -2.99, 67 0 M38.81 -10.26 C49.4 -6.4, 60 -2.55, 67 0" stroke="#1e1e1e" stroke-width="1" fill="none"></path></g></g><mask></mask><g stroke-linecap="round"><g transform="translate(918 81) rotate(0 31 0)"><path d="M0 0 C17.9 0, 35.8 0, 62 0 M0 0 C12.64 0, 25.28 0, 62 0" stroke="#1e1e1e" stroke-width="1" fill="none"></path></g><g transform="translate(918 81) rotate(0 31 0)"><path d="M33.81 10.26 C41.95 7.3, 50.09 4.34, 62 0 M33.81 10.26 C39.56 8.17, 45.3 6.08, 62 0" stroke="#1e1e1e" stroke-width="1" fill="none"></path></g><g transform="translate(918 81) rotate(0 31 0)"><path d="M33.81 -10.26 C41.95 -7.3, 50.09 -4.34, 62 0 M33.81 -10.26 C39.56 -8.17, 45.3 -6.08, 62 0" stroke="#1e1e1e" stroke-width="1" fill="none"></path></g></g><mask></mask><g stroke-linecap="round"><g transform="translate(893 306) rotate(0 37.5 0)"><path d="M0 0 C26.3 0, 52.59 0, 75 0 M0 0 C17.52 0, 35.05 0, 75 0" stroke="#1e1e1e" stroke-width="1" fill="none"></path></g><g transform="translate(893 306) rotate(0 37.5 0)"><path d="M46.81 10.26 C56.69 6.66, 66.58 3.07, 75 0 M46.81 10.26 C53.4 7.86, 59.98 5.47, 75 0" stroke="#1e1e1e" stroke-width="1" fill="none"></path></g><g transform="translate(893 306) rotate(0 37.5 0)"><path d="M46.81 -10.26 C56.69 -6.66, 66.58 -3.07, 75 0 M46.81 -10.26 C53.4 -7.86, 59.98 -5.47, 75 0" stroke="#1e1e1e" stroke-width="1" fill="none"></path></g></g><mask></mask><g stroke-linecap="round"><g transform="translate(942 247) rotate(0 30 0)"><path d="M0 0 C18.3 0, 36.6 0, 60 0 M0 0 C18.87 0, 37.75 0, 60 0" stroke="#1e1e1e" stroke-width="1" fill="none"></path></g><g transform="translate(942 247) rotate(0 30 0)"><path d="M31.81 10.26 C40.41 7.13, 49.01 4, 60 0 M31.81 10.26 C40.68 7.03, 49.55 3.81, 60 0" stroke="#1e1e1e" stroke-width="1" fill="none"></path></g><g transform="translate(942 247) rotate(0 30 0)"><path d="M31.81 -10.26 C40.41 -7.13, 49.01 -4, 60 0 M31.81 -10.26 C40.68 -7.03, 49.55 -3.81, 60 0" stroke="#1e1e1e" stroke-width="1" fill="none"></path></g></g><mask></mask><g stroke-linecap="round"><g transform="translate(946 164) rotate(0 28 0)"><path d="M0 0 C13.47 0, 26.94 0, 56 0 M0 0 C19.13 0, 38.25 0, 56 0" stroke="#1e1e1e" stroke-width="1" fill="none"></path></g><g transform="translate(946 164) rotate(0 28 0)"><path d="M29.69 9.58 C36.02 7.27, 42.34 4.97, 56 0 M29.69 9.58 C38.68 6.31, 47.66 3.03, 56 0" stroke="#1e1e1e" stroke-width="1" fill="none"></path></g><g transform="translate(946 164) rotate(0 28 0)"><path d="M29.69 -9.58 C36.02 -7.27, 42.34 -4.97, 56 0 M29.69 -9.58 C38.68 -6.31, 47.66 -3.03, 56 0" stroke="#1e1e1e" stroke-width="1" fill="none"></path></g></g><mask></mask><g stroke-linecap="round"><g transform="translate(698 141) rotate(0 13.5 -23.5)"><path d="M0 0 C5.45 -9.48, 10.89 -18.96, 27 -47 M0 0 C9.91 -17.24, 19.81 -34.49, 27 -47" stroke="#1e1e1e" stroke-width="1" fill="none"></path></g><g transform="translate(698 141) rotate(0 13.5 -23.5)"><path d="M22.35 -20.3 C23.29 -25.69, 24.23 -31.07, 27 -47 M22.35 -20.3 C24.06 -30.1, 25.76 -39.89, 27 -47" stroke="#1e1e1e" stroke-width="1" fill="none"></path></g><g transform="translate(698 141) rotate(0 13.5 -23.5)"><path d="M6.28 -29.53 C10.46 -33.06, 14.64 -36.58, 27 -47 M6.28 -29.53 C13.88 -35.94, 21.48 -42.35, 27 -47" stroke="#1e1e1e" stroke-width="1" fill="none"></path></g></g><mask></mask><g stroke-linecap="round"><g transform="translate(695 182) rotate(0 11.5 24)"><path d="M0 0 C7.86 16.4, 15.72 32.8, 23 48 M0 0 C7.02 14.65, 14.04 29.3, 23 48" stroke="#1e1e1e" stroke-width="1" fill="none"></path></g><g transform="translate(695 182) rotate(0 11.5 24)"><path d="M3.99 29.38 C10.48 35.74, 16.98 42.1, 23 48 M3.99 29.38 C9.79 35.06, 15.59 40.75, 23 48" stroke="#1e1e1e" stroke-width="1" fill="none"></path></g><g transform="translate(695 182) rotate(0 11.5 24)"><path d="M20.4 21.51 C21.29 30.56, 22.18 39.61, 23 48 M20.4 21.51 C21.19 29.6, 21.99 37.68, 23 48" stroke="#1e1e1e" stroke-width="1" fill="none"></path></g></g><mask></mask><g stroke-linecap="round"><g transform="translate(741 189) rotate(0 21.5 20.5)"><path d="M0 0 C9.25 8.82, 18.49 17.63, 43 41 M0 0 C16.52 15.75, 33.04 31.5, 43 41" stroke="#1e1e1e" stroke-width="1" fill="none"></path></g><g transform="translate(741 189) rotate(0 21.5 20.5)"><path d="M15.79 29.09 C21.64 31.65, 27.49 34.21, 43 41 M15.79 29.09 C26.24 33.67, 36.69 38.24, 43 41" stroke="#1e1e1e" stroke-width="1" fill="none"></path></g><g transform="translate(741 189) rotate(0 21.5 20.5)"><path d="M29.81 14.38 C32.65 20.11, 35.48 25.83, 43 41 M29.81 14.38 C34.88 24.61, 39.94 34.83, 43 41" stroke="#1e1e1e" stroke-width="1" fill="none"></path></g></g><mask></mask><g stroke-linecap="round"><g transform="translate(763 265) rotate(0 45.5 0.5)"><path d="M0 0 C19.82 0.22, 39.63 0.44, 91 1 M0 0 C26.41 0.29, 52.83 0.58, 91 1" stroke="#1e1e1e" stroke-width="1" fill="none"></path></g><g transform="translate(763 265) rotate(0 45.5 0.5)"><path d="M62.7 10.95 C68.86 8.78, 75.02 6.62, 91 1 M62.7 10.95 C70.91 8.06, 79.13 5.17, 91 1" stroke="#1e1e1e" stroke-width="1" fill="none"></path></g><g transform="translate(763 265) rotate(0 45.5 0.5)"><path d="M62.92 -9.57 C69.04 -7.27, 75.15 -4.97, 91 1 M62.92 -9.57 C71.07 -6.5, 79.22 -3.43, 91 1" stroke="#1e1e1e" stroke-width="1" fill="none"></path></g></g><mask></mask><g stroke-linecap="round"><g transform="translate(827 237) rotate(0 30 3)"><path d="M0 0 C23.51 2.35, 47.02 4.7, 60 6 M0 0 C15.46 1.55, 30.91 3.09, 60 6" stroke="#1e1e1e" stroke-width="1" fill="none"></path></g><g transform="translate(827 237) rotate(0 30 3)"><path d="M30.93 13.4 C42.32 10.5, 53.71 7.6, 60 6 M30.93 13.4 C38.42 11.5, 45.91 9.59, 60 6" stroke="#1e1e1e" stroke-width="1" fill="none"></path></g><g transform="translate(827 237) rotate(0 30 3)"><path d="M32.97 -7.01 C43.56 -1.92, 54.15 3.18, 60 6 M32.97 -7.01 C39.93 -3.66, 46.9 -0.31, 60 6" stroke="#1e1e1e" stroke-width="1" fill="none"></path></g></g><mask></mask><g stroke-linecap="round"><g transform="translate(856 176) rotate(0 30.5 5)"><path d="M0 0 C18.96 3.11, 37.93 6.22, 61 10 M0 0 C24.06 3.94, 48.12 7.89, 61 10" stroke="#1e1e1e" stroke-width="1" fill="none"></path></g><g transform="translate(856 176) rotate(0 30.5 5)"><path d="M31.52 15.56 C40.69 13.83, 49.85 12.1, 61 10 M31.52 15.56 C43.15 13.37, 54.78 11.18, 61 10" stroke="#1e1e1e" stroke-width="1" fill="none"></path></g><g transform="translate(856 176) rotate(0 30.5 5)"><path d="M34.84 -4.69 C42.97 -0.12, 51.11 4.45, 61 10 M34.84 -4.69 C45.16 1.11, 55.48 6.9, 61 10" stroke="#1e1e1e" stroke-width="1" fill="none"></path></g></g><mask></mask><g stroke-linecap="round"><g transform="translate(838 155) rotate(0 32 -16.5)"><path d="M0 0 C15.79 -8.14, 31.57 -16.28, 64 -33 M0 0 C22.03 -11.36, 44.06 -22.72, 64 -33" stroke="#1e1e1e" stroke-width="1" fill="none"></path></g><g transform="translate(838 155) rotate(0 32 -16.5)"><path d="M43.65 -10.96 C48.67 -16.4, 53.69 -21.83, 64 -33 M43.65 -10.96 C50.65 -18.55, 57.66 -26.13, 64 -33" stroke="#1e1e1e" stroke-width="1" fill="none"></path></g><g transform="translate(838 155) rotate(0 32 -16.5)"><path d="M34.24 -29.2 C41.58 -30.14, 48.92 -31.07, 64 -33 M34.24 -29.2 C44.48 -30.51, 54.73 -31.82, 64 -33" stroke="#1e1e1e" stroke-width="1" fill="none"></path></g></g><mask></mask><g stroke-linecap="round"><g transform="translate(756 117) rotate(0 29 -21)"><path d="M0 0 C18.97 -13.73, 37.93 -27.47, 58 -42 M0 0 C18.36 -13.29, 36.72 -26.59, 58 -42" stroke="#1e1e1e" stroke-width="1" fill="none"></path></g><g transform="translate(756 117) rotate(0 29 -21)"><path d="M41.19 -17.16 C46.68 -25.28, 52.18 -33.4, 58 -42 M41.19 -17.16 C46.51 -25.02, 51.83 -32.88, 58 -42" stroke="#1e1e1e" stroke-width="1" fill="none"></path></g><g transform="translate(756 117) rotate(0 29 -21)"><path d="M29.15 -33.78 C38.58 -36.47, 48.02 -39.15, 58 -42 M29.15 -33.78 C38.28 -36.38, 47.41 -38.98, 58 -42" stroke="#1e1e1e" stroke-width="1" fill="none"></path></g></g><mask></mask><g stroke-linecap="round"><g transform="translate(811 115) rotate(0 35 -9)"><path d="M0 0 C14.15 -3.64, 28.3 -7.28, 70 -18 M0 0 C15.57 -4, 31.13 -8, 70 -18" stroke="#1e1e1e" stroke-width="1" fill="none"></path></g><g transform="translate(811 115) rotate(0 35 -9)"><path d="M45.25 -1.04 C50.25 -4.47, 55.26 -7.9, 70 -18 M45.25 -1.04 C50.76 -4.81, 56.26 -8.58, 70 -18" stroke="#1e1e1e" stroke-width="1" fill="none"></path></g><g transform="translate(811 115) rotate(0 35 -9)"><path d="M40.14 -20.92 C46.18 -20.33, 52.21 -19.74, 70 -18 M40.14 -20.92 C46.78 -20.27, 53.42 -19.62, 70 -18" stroke="#1e1e1e" stroke-width="1" fill="none"></path></g></g><mask></mask><g stroke-linecap="round" transform="translate(16 407) rotate(0 203 163)"><path d="M0.65 -0.58 C159.54 0.52, 318.94 -0.29, 405.97 -0.61 M0.26 -0.24 C145.2 -1.31, 290.67 -1.54, 405.79 0.06 M405.84 0.37 C407.04 113.16, 405.53 226.9, 406.56 325.16 M405.95 0.29 C407.28 102.75, 407.3 204.97, 406.27 326.45 M405.72 327.08 C286.47 325.01, 166.72 325.44, -0.45 325.87 M405.78 326.47 C312.74 324.99, 219 324.65, -0.13 325.82 M-0.18 325.02 C-1 257.27, -1.05 185.44, -0.71 0.2 M-0.31 326.34 C-1.93 257.47, -2.55 187.32, 0.57 0.05" stroke="#1e1e1e" stroke-width="1" fill="none"></path></g><g stroke-linecap="round" transform="translate(58 679) rotate(0 8 8)"><path d="M16 8 C16 8.46, 15.96 8.93, 15.88 9.39 C15.8 9.85, 15.68 10.3, 15.52 10.74 C15.36 11.17, 15.16 11.6, 14.93 12 C14.7 12.4, 14.43 12.79, 14.13 13.14 C13.83 13.5, 13.5 13.83, 13.14 14.13 C12.79 14.43, 12.4 14.7, 12 14.93 C11.6 15.16, 11.17 15.36, 10.74 15.52 C10.3 15.68, 9.85 15.8, 9.39 15.88 C8.93 15.96, 8.46 16, 8 16 C7.54 16, 7.07 15.96, 6.61 15.88 C6.15 15.8, 5.7 15.68, 5.26 15.52 C4.83 15.36, 4.4 15.16, 4 14.93 C3.6 14.7, 3.21 14.43, 2.86 14.13 C2.5 13.83, 2.17 13.5, 1.87 13.14 C1.57 12.79, 1.3 12.4, 1.07 12 C0.84 11.6, 0.64 11.17, 0.48 10.74 C0.32 10.3, 0.2 9.85, 0.12 9.39 C0.04 8.93, 0 8.46, 0 8 C0 7.54, 0.04 7.07, 0.12 6.61 C0.2 6.15, 0.32 5.7, 0.48 5.26 C0.64 4.83, 0.84 4.4, 1.07 4 C1.3 3.6, 1.57 3.21, 1.87 2.86 C2.17 2.5, 2.5 2.17, 2.86 1.87 C3.21 1.57, 3.6 1.3, 4 1.07 C4.4 0.84, 4.83 0.64, 5.26 0.48 C5.7 0.32, 6.15 0.2, 6.61 0.12 C7.07 0.04, 7.54 0, 8 0 C8.46 0, 8.93 0.04, 9.39 0.12 C9.85 0.2, 10.3 0.32, 10.74 0.48 C11.17 0.64, 11.6 0.84, 12 1.07 C12.4 1.3, 12.79 1.57, 13.14 1.87 C13.5 2.17, 13.83 2.5, 14.13 2.86 C14.43 3.21, 14.7 3.6, 14.93 4 C15.16 4.4, 15.36 4.83, 15.52 5.26 C15.68 5.7, 15.8 6.15, 15.88 6.61 C15.96 7.07, 15.98 7.77, 16 8 C16.02 8.23, 16.02 7.77, 16 8" stroke="none" stroke-width="0" fill="#1e1e1e"></path><path d="M16 8 C16 8.46, 15.96 8.93, 15.88 9.39 C15.8 9.85, 15.68 10.3, 15.52 10.74 C15.36 11.17, 15.16 11.6, 14.93 12 C14.7 12.4, 14.43 12.79, 14.13 13.14 C13.83 13.5, 13.5 13.83, 13.14 14.13 C12.79 14.43, 12.4 14.7, 12 14.93 C11.6 15.16, 11.17 15.36, 10.74 15.52 C10.3 15.68, 9.85 15.8, 9.39 15.88 C8.93 15.96, 8.46 16, 8 16 C7.54 16, 7.07 15.96, 6.61 15.88 C6.15 15.8, 5.7 15.68, 5.26 15.52 C4.83 15.36, 4.4 15.16, 4 14.93 C3.6 14.7, 3.21 14.43, 2.86 14.13 C2.5 13.83, 2.17 13.5, 1.87 13.14 C1.57 12.79, 1.3 12.4, 1.07 12 C0.84 11.6, 0.64 11.17, 0.48 10.74 C0.32 10.3, 0.2 9.85, 0.12 9.39 C0.04 8.93, 0 8.46, 0 8 C0 7.54, 0.04 7.07, 0.12 6.61 C0.2 6.15, 0.32 5.7, 0.48 5.26 C0.64 4.83, 0.84 4.4, 1.07 4 C1.3 3.6, 1.57 3.21, 1.87 2.86 C2.17 2.5, 2.5 2.17, 2.86 1.87 C3.21 1.57, 3.6 1.3, 4 1.07 C4.4 0.84, 4.83 0.64, 5.26 0.48 C5.7 0.32, 6.15 0.2, 6.61 0.12 C7.07 0.04, 7.54 0, 8 0 C8.46 0, 8.93 0.04, 9.39 0.12 C9.85 0.2, 10.3 0.32, 10.74 0.48 C11.17 0.64, 11.6 0.84, 12 1.07 C12.4 1.3, 12.79 1.57, 13.14 1.87 C13.5 2.17, 13.83 2.5, 14.13 2.86 C14.43 3.21, 14.7 3.6, 14.93 4 C15.16 4.4, 15.36 4.83, 15.52 5.26 C15.68 5.7, 15.8 6.15, 15.88 6.61 C15.96 7.07, 15.98 7.77, 16 8 C16.02 8.23, 16.02 7.77, 16 8" stroke="#1e1e1e" stroke-width="1" fill="none"></path></g><g stroke-linecap="round" transform="translate(300 455) rotate(0 8 8)"><path d="M16 8 C16 8.46, 15.96 8.93, 15.88 9.39 C15.8 9.85, 15.68 10.3, 15.52 10.74 C15.36 11.17, 15.16 11.6, 14.93 12 C14.7 12.4, 14.43 12.79, 14.13 13.14 C13.83 13.5, 13.5 13.83, 13.14 14.13 C12.79 14.43, 12.4 14.7, 12 14.93 C11.6 15.16, 11.17 15.36, 10.74 15.52 C10.3 15.68, 9.85 15.8, 9.39 15.88 C8.93 15.96, 8.46 16, 8 16 C7.54 16, 7.07 15.96, 6.61 15.88 C6.15 15.8, 5.7 15.68, 5.26 15.52 C4.83 15.36, 4.4 15.16, 4 14.93 C3.6 14.7, 3.21 14.43, 2.86 14.13 C2.5 13.83, 2.17 13.5, 1.87 13.14 C1.57 12.79, 1.3 12.4, 1.07 12 C0.84 11.6, 0.64 11.17, 0.48 10.74 C0.32 10.3, 0.2 9.85, 0.12 9.39 C0.04 8.93, 0 8.46, 0 8 C0 7.54, 0.04 7.07, 0.12 6.61 C0.2 6.15, 0.32 5.7, 0.48 5.26 C0.64 4.83, 0.84 4.4, 1.07 4 C1.3 3.6, 1.57 3.21, 1.87 2.86 C2.17 2.5, 2.5 2.17, 2.86 1.87 C3.21 1.57, 3.6 1.3, 4 1.07 C4.4 0.84, 4.83 0.64, 5.26 0.48 C5.7 0.32, 6.15 0.2, 6.61 0.12 C7.07 0.04, 7.54 0, 8 0 C8.46 0, 8.93 0.04, 9.39 0.12 C9.85 0.2, 10.3 0.32, 10.74 0.48 C11.17 0.64, 11.6 0.84, 12 1.07 C12.4 1.3, 12.79 1.57, 13.14 1.87 C13.5 2.17, 13.83 2.5, 14.13 2.86 C14.43 3.21, 14.7 3.6, 14.93 4 C15.16 4.4, 15.36 4.83, 15.52 5.26 C15.68 5.7, 15.8 6.15, 15.88 6.61 C15.96 7.07, 15.98 7.77, 16 8 C16.02 8.23, 16.02 7.77, 16 8" stroke="none" stroke-width="0" fill="#1e1e1e"></path><path d="M16 8 C16 8.46, 15.96 8.93, 15.88 9.39 C15.8 9.85, 15.68 10.3, 15.52 10.74 C15.36 11.17, 15.16 11.6, 14.93 12 C14.7 12.4, 14.43 12.79, 14.13 13.14 C13.83 13.5, 13.5 13.83, 13.14 14.13 C12.79 14.43, 12.4 14.7, 12 14.93 C11.6 15.16, 11.17 15.36, 10.74 15.52 C10.3 15.68, 9.85 15.8, 9.39 15.88 C8.93 15.96, 8.46 16, 8 16 C7.54 16, 7.07 15.96, 6.61 15.88 C6.15 15.8, 5.7 15.68, 5.26 15.52 C4.83 15.36, 4.4 15.16, 4 14.93 C3.6 14.7, 3.21 14.43, 2.86 14.13 C2.5 13.83, 2.17 13.5, 1.87 13.14 C1.57 12.79, 1.3 12.4, 1.07 12 C0.84 11.6, 0.64 11.17, 0.48 10.74 C0.32 10.3, 0.2 9.85, 0.12 9.39 C0.04 8.93, 0 8.46, 0 8 C0 7.54, 0.04 7.07, 0.12 6.61 C0.2 6.15, 0.32 5.7, 0.48 5.26 C0.64 4.83, 0.84 4.4, 1.07 4 C1.3 3.6, 1.57 3.21, 1.87 2.86 C2.17 2.5, 2.5 2.17, 2.86 1.87 C3.21 1.57, 3.6 1.3, 4 1.07 C4.4 0.84, 4.83 0.64, 5.26 0.48 C5.7 0.32, 6.15 0.2, 6.61 0.12 C7.07 0.04, 7.54 0, 8 0 C8.46 0, 8.93 0.04, 9.39 0.12 C9.85 0.2, 10.3 0.32, 10.74 0.48 C11.17 0.64, 11.6 0.84, 12 1.07 C12.4 1.3, 12.79 1.57, 13.14 1.87 C13.5 2.17, 13.83 2.5, 14.13 2.86 C14.43 3.21, 14.7 3.6, 14.93 4 C15.16 4.4, 15.36 4.83, 15.52 5.26 C15.68 5.7, 15.8 6.15, 15.88 6.61 C15.96 7.07, 15.98 7.77, 16 8 C16.02 8.23, 16.02 7.77, 16 8" stroke="#1e1e1e" stroke-width="1" fill="none"></path></g><g stroke-linecap="round"><g transform="translate(67 683) rotate(0 120.5 -109.5)"><path d="M0 0 C9.5 -21.5, 23.67 -107.83, 57 -129 C90.33 -150.17, 169.33 -112, 200 -127 C230.67 -142, 234.17 -203.67, 241 -219 M0 0 C9.5 -21.5, 23.67 -107.83, 57 -129 C90.33 -150.17, 169.33 -112, 200 -127 C230.67 -142, 234.17 -203.67, 241 -219" stroke="#1e1e1e" stroke-width="2" fill="none"></path></g></g><mask></mask><g stroke-linecap="round"><g transform="translate(36 675) rotate(0 154.53477993228682 -102.63285200766853)"><path d="M0 0 C7.17 -23.17, 7.5 -113, 43 -139 C78.5 -165, 177.83 -139.83, 213 -156 C248.17 -172.17, 242.33 -220.5, 254 -236 C265.67 -251.5, 273.83 -255.17, 283 -249 C292.17 -242.83, 310.33 -223.17, 309 -199 C307.67 -174.83, 293.17 -124.5, 275 -104 C256.83 -83.5, 225.33 -79.33, 200 -76 C174.67 -72.67, 143.83 -93.67, 123 -84 C102.17 -74.33, 85.33 -35.83, 75 -18 C64.67 -0.17, 71.5 12.33, 61 23 C50.5 33.67, 22.17 49.83, 12 46 C1.83 42.17, 2 7.67, 0 0" stroke="#1e1e1e" stroke-width="1.5" fill="none" stroke-dasharray="8 9"></path></g></g><mask></mask><g stroke-linecap="round"><g transform="translate(68 681) rotate(0 13.5 -43.5)"><path d="M0 0 C4.5 -14.5, 22.5 -72.5, 27 -87 M0 0 C4.5 -14.5, 22.5 -72.5, 27 -87" stroke="#1e1e1e" stroke-width="1" fill="none"></path></g><g transform="translate(68 681) rotate(0 13.5 -43.5)"><path d="M28.44 -57.03 C28.04 -65.33, 27.64 -73.63, 27 -87 M28.44 -57.03 C27.92 -67.96, 27.39 -78.88, 27 -87" stroke="#1e1e1e" stroke-width="1" fill="none"></path></g><g transform="translate(68 681) rotate(0 13.5 -43.5)"><path d="M8.84 -63.12 C13.87 -69.73, 18.9 -76.34, 27 -87 M8.84 -63.12 C15.46 -71.82, 22.08 -80.53, 27 -87" stroke="#1e1e1e" stroke-width="1" fill="none"></path></g></g><mask></mask><g stroke-linecap="round"><g transform="translate(153 548) rotate(0 44.5 6)"><path d="M0 0 C14.83 2, 74.17 10, 89 12 M0 0 C14.83 2, 74.17 10, 89 12" stroke="#1e1e1e" stroke-width="1" fill="none"></path></g><g transform="translate(153 548) rotate(0 44.5 6)"><path d="M59.69 18.4 C69.09 16.35, 78.49 14.3, 89 12 M59.69 18.4 C66.44 16.93, 73.18 15.45, 89 12" stroke="#1e1e1e" stroke-width="1" fill="none"></path></g><g transform="translate(153 548) rotate(0 44.5 6)"><path d="M62.43 -1.94 C70.95 2.53, 79.47 7, 89 12 M62.43 -1.94 C68.55 1.27, 74.66 4.48, 89 12" stroke="#1e1e1e" stroke-width="1" fill="none"></path></g></g><mask></mask><g stroke-linecap="round"><g transform="translate(280 543) rotate(0 11 -27.5)"><path d="M0 0 C3.67 -9.17, 18.33 -45.83, 22 -55 M0 0 C3.67 -9.17, 18.33 -45.83, 22 -55" stroke="#1e1e1e" stroke-width="1" fill="none"></path></g><g transform="translate(280 543) rotate(0 11 -27.5)"><path d="M21.07 -25.4 C21.38 -35.31, 21.69 -45.22, 22 -55 M21.07 -25.4 C21.42 -36.44, 21.76 -47.48, 22 -55" stroke="#1e1e1e" stroke-width="1" fill="none"></path></g><g transform="translate(280 543) rotate(0 11 -27.5)"><path d="M2.26 -32.92 C8.87 -40.31, 15.48 -47.7, 22 -55 M2.26 -32.92 C9.62 -41.16, 16.99 -49.39, 22 -55" stroke="#1e1e1e" stroke-width="1" fill="none"></path></g></g><mask></mask><g stroke-linecap="round" transform="translate(599 391) rotate(0 203 163)"><path d="M1.03 0.78 C87.38 0.25, 173.88 1.24, 406.37 0.68 M-0.49 0.31 C91.67 0.53, 182.25 0.34, 405.65 -0.04 M406.51 -0.23 C407.55 120.86, 408.97 243.13, 406.61 326.83 M405.35 0.43 C407.84 79.61, 407.31 158.6, 406.15 325.83 M406.56 327.04 C290.37 327.41, 175.85 326.4, 0.91 326.06 M405.74 325.81 C302.48 326.16, 199.31 326.87, -0.36 325.91 M1.06 326.26 C-1.62 235.03, -1.16 141.63, -0.47 0.22 M-0.29 326.06 C2.47 216.26, 1.7 107.5, 0.21 0.25" stroke="#1e1e1e" stroke-width="1" fill="none"></path></g><g stroke-linecap="round" transform="translate(641 663) rotate(0 8 8)"><path d="M16 8 C16 8.46, 15.96 8.93, 15.88 9.39 C15.8 9.85, 15.68 10.3, 15.52 10.74 C15.36 11.17, 15.16 11.6, 14.93 12 C14.7 12.4, 14.43 12.79, 14.13 13.14 C13.83 13.5, 13.5 13.83, 13.14 14.13 C12.79 14.43, 12.4 14.7, 12 14.93 C11.6 15.16, 11.17 15.36, 10.74 15.52 C10.3 15.68, 9.85 15.8, 9.39 15.88 C8.93 15.96, 8.46 16, 8 16 C7.54 16, 7.07 15.96, 6.61 15.88 C6.15 15.8, 5.7 15.68, 5.26 15.52 C4.83 15.36, 4.4 15.16, 4 14.93 C3.6 14.7, 3.21 14.43, 2.86 14.13 C2.5 13.83, 2.17 13.5, 1.87 13.14 C1.57 12.79, 1.3 12.4, 1.07 12 C0.84 11.6, 0.64 11.17, 0.48 10.74 C0.32 10.3, 0.2 9.85, 0.12 9.39 C0.04 8.93, 0 8.46, 0 8 C0 7.54, 0.04 7.07, 0.12 6.61 C0.2 6.15, 0.32 5.7, 0.48 5.26 C0.64 4.83, 0.84 4.4, 1.07 4 C1.3 3.6, 1.57 3.21, 1.87 2.86 C2.17 2.5, 2.5 2.17, 2.86 1.87 C3.21 1.57, 3.6 1.3, 4 1.07 C4.4 0.84, 4.83 0.64, 5.26 0.48 C5.7 0.32, 6.15 0.2, 6.61 0.12 C7.07 0.04, 7.54 0, 8 0 C8.46 0, 8.93 0.04, 9.39 0.12 C9.85 0.2, 10.3 0.32, 10.74 0.48 C11.17 0.64, 11.6 0.84, 12 1.07 C12.4 1.3, 12.79 1.57, 13.14 1.87 C13.5 2.17, 13.83 2.5, 14.13 2.86 C14.43 3.21, 14.7 3.6, 14.93 4 C15.16 4.4, 15.36 4.83, 15.52 5.26 C15.68 5.7, 15.8 6.15, 15.88 6.61 C15.96 7.07, 15.98 7.77, 16 8 C16.02 8.23, 16.02 7.77, 16 8" stroke="none" stroke-width="0" fill="#1e1e1e"></path><path d="M16 8 C16 8.46, 15.96 8.93, 15.88 9.39 C15.8 9.85, 15.68 10.3, 15.52 10.74 C15.36 11.17, 15.16 11.6, 14.93 12 C14.7 12.4, 14.43 12.79, 14.13 13.14 C13.83 13.5, 13.5 13.83, 13.14 14.13 C12.79 14.43, 12.4 14.7, 12 14.93 C11.6 15.16, 11.17 15.36, 10.74 15.52 C10.3 15.68, 9.85 15.8, 9.39 15.88 C8.93 15.96, 8.46 16, 8 16 C7.54 16, 7.07 15.96, 6.61 15.88 C6.15 15.8, 5.7 15.68, 5.26 15.52 C4.83 15.36, 4.4 15.16, 4 14.93 C3.6 14.7, 3.21 14.43, 2.86 14.13 C2.5 13.83, 2.17 13.5, 1.87 13.14 C1.57 12.79, 1.3 12.4, 1.07 12 C0.84 11.6, 0.64 11.17, 0.48 10.74 C0.32 10.3, 0.2 9.85, 0.12 9.39 C0.04 8.93, 0 8.46, 0 8 C0 7.54, 0.04 7.07, 0.12 6.61 C0.2 6.15, 0.32 5.7, 0.48 5.26 C0.64 4.83, 0.84 4.4, 1.07 4 C1.3 3.6, 1.57 3.21, 1.87 2.86 C2.17 2.5, 2.5 2.17, 2.86 1.87 C3.21 1.57, 3.6 1.3, 4 1.07 C4.4 0.84, 4.83 0.64, 5.26 0.48 C5.7 0.32, 6.15 0.2, 6.61 0.12 C7.07 0.04, 7.54 0, 8 0 C8.46 0, 8.93 0.04, 9.39 0.12 C9.85 0.2, 10.3 0.32, 10.74 0.48 C11.17 0.64, 11.6 0.84, 12 1.07 C12.4 1.3, 12.79 1.57, 13.14 1.87 C13.5 2.17, 13.83 2.5, 14.13 2.86 C14.43 3.21, 14.7 3.6, 14.93 4 C15.16 4.4, 15.36 4.83, 15.52 5.26 C15.68 5.7, 15.8 6.15, 15.88 6.61 C15.96 7.07, 15.98 7.77, 16 8 C16.02 8.23, 16.02 7.77, 16 8" stroke="#1e1e1e" stroke-width="1" fill="none"></path></g><g stroke-linecap="round" transform="translate(883 439) rotate(0 8 8)"><path d="M16 8 C16 8.46, 15.96 8.93, 15.88 9.39 C15.8 9.85, 15.68 10.3, 15.52 10.74 C15.36 11.17, 15.16 11.6, 14.93 12 C14.7 12.4, 14.43 12.79, 14.13 13.14 C13.83 13.5, 13.5 13.83, 13.14 14.13 C12.79 14.43, 12.4 14.7, 12 14.93 C11.6 15.16, 11.17 15.36, 10.74 15.52 C10.3 15.68, 9.85 15.8, 9.39 15.88 C8.93 15.96, 8.46 16, 8 16 C7.54 16, 7.07 15.96, 6.61 15.88 C6.15 15.8, 5.7 15.68, 5.26 15.52 C4.83 15.36, 4.4 15.16, 4 14.93 C3.6 14.7, 3.21 14.43, 2.86 14.13 C2.5 13.83, 2.17 13.5, 1.87 13.14 C1.57 12.79, 1.3 12.4, 1.07 12 C0.84 11.6, 0.64 11.17, 0.48 10.74 C0.32 10.3, 0.2 9.85, 0.12 9.39 C0.04 8.93, 0 8.46, 0 8 C0 7.54, 0.04 7.07, 0.12 6.61 C0.2 6.15, 0.32 5.7, 0.48 5.26 C0.64 4.83, 0.84 4.4, 1.07 4 C1.3 3.6, 1.57 3.21, 1.87 2.86 C2.17 2.5, 2.5 2.17, 2.86 1.87 C3.21 1.57, 3.6 1.3, 4 1.07 C4.4 0.84, 4.83 0.64, 5.26 0.48 C5.7 0.32, 6.15 0.2, 6.61 0.12 C7.07 0.04, 7.54 0, 8 0 C8.46 0, 8.93 0.04, 9.39 0.12 C9.85 0.2, 10.3 0.32, 10.74 0.48 C11.17 0.64, 11.6 0.84, 12 1.07 C12.4 1.3, 12.79 1.57, 13.14 1.87 C13.5 2.17, 13.83 2.5, 14.13 2.86 C14.43 3.21, 14.7 3.6, 14.93 4 C15.16 4.4, 15.36 4.83, 15.52 5.26 C15.68 5.7, 15.8 6.15, 15.88 6.61 C15.96 7.07, 15.98 7.77, 16 8 C16.02 8.23, 16.02 7.77, 16 8" stroke="none" stroke-width="0" fill="#1e1e1e"></path><path d="M16 8 C16 8.46, 15.96 8.93, 15.88 9.39 C15.8 9.85, 15.68 10.3, 15.52 10.74 C15.36 11.17, 15.16 11.6, 14.93 12 C14.7 12.4, 14.43 12.79, 14.13 13.14 C13.83 13.5, 13.5 13.83, 13.14 14.13 C12.79 14.43, 12.4 14.7, 12 14.93 C11.6 15.16, 11.17 15.36, 10.74 15.52 C10.3 15.68, 9.85 15.8, 9.39 15.88 C8.93 15.96, 8.46 16, 8 16 C7.54 16, 7.07 15.96, 6.61 15.88 C6.15 15.8, 5.7 15.68, 5.26 15.52 C4.83 15.36, 4.4 15.16, 4 14.93 C3.6 14.7, 3.21 14.43, 2.86 14.13 C2.5 13.83, 2.17 13.5, 1.87 13.14 C1.57 12.79, 1.3 12.4, 1.07 12 C0.84 11.6, 0.64 11.17, 0.48 10.74 C0.32 10.3, 0.2 9.85, 0.12 9.39 C0.04 8.93, 0 8.46, 0 8 C0 7.54, 0.04 7.07, 0.12 6.61 C0.2 6.15, 0.32 5.7, 0.48 5.26 C0.64 4.83, 0.84 4.4, 1.07 4 C1.3 3.6, 1.57 3.21, 1.87 2.86 C2.17 2.5, 2.5 2.17, 2.86 1.87 C3.21 1.57, 3.6 1.3, 4 1.07 C4.4 0.84, 4.83 0.64, 5.26 0.48 C5.7 0.32, 6.15 0.2, 6.61 0.12 C7.07 0.04, 7.54 0, 8 0 C8.46 0, 8.93 0.04, 9.39 0.12 C9.85 0.2, 10.3 0.32, 10.74 0.48 C11.17 0.64, 11.6 0.84, 12 1.07 C12.4 1.3, 12.79 1.57, 13.14 1.87 C13.5 2.17, 13.83 2.5, 14.13 2.86 C14.43 3.21, 14.7 3.6, 14.93 4 C15.16 4.4, 15.36 4.83, 15.52 5.26 C15.68 5.7, 15.8 6.15, 15.88 6.61 C15.96 7.07, 15.98 7.77, 16 8 C16.02 8.23, 16.02 7.77, 16 8" stroke="#1e1e1e" stroke-width="1" fill="none"></path></g><g stroke-linecap="round"><g transform="translate(650 667) rotate(0 120.5 -109.5)"><path d="M0 0 C9.5 -21.5, 23.67 -107.83, 57 -129 C90.33 -150.17, 169.33 -112, 200 -127 C230.67 -142, 234.17 -203.67, 241 -219 M0 0 C9.5 -21.5, 23.67 -107.83, 57 -129 C90.33 -150.17, 169.33 -112, 200 -127 C230.67 -142, 234.17 -203.67, 241 -219" stroke="#1e1e1e" stroke-width="2" fill="none"></path></g></g><mask></mask><g stroke-linecap="round"><g transform="translate(619 659) rotate(0 154.53477993228682 -102.63285200766853)"><path d="M0 0 C7.17 -23.17, 7.5 -113, 43 -139 C78.5 -165, 177.83 -139.83, 213 -156 C248.17 -172.17, 242.33 -220.5, 254 -236 C265.67 -251.5, 273.83 -255.17, 283 -249 C292.17 -242.83, 310.33 -223.17, 309 -199 C307.67 -174.83, 293.17 -124.5, 275 -104 C256.83 -83.5, 225.33 -79.33, 200 -76 C174.67 -72.67, 143.83 -93.67, 123 -84 C102.17 -74.33, 85.33 -35.83, 75 -18 C64.67 -0.17, 71.5 12.33, 61 23 C50.5 33.67, 22.17 49.83, 12 46 C1.83 42.17, 2 7.67, 0 0" stroke="#1e1e1e" stroke-width="1.5" fill="none" stroke-dasharray="8 9"></path></g></g><mask></mask><g stroke-linecap="round"><g transform="translate(617 421) rotate(0 38 0)"><path d="M0 0 C12.67 0, 63.33 0, 76 0 M0 0 C12.67 0, 63.33 0, 76 0" stroke="#1e1e1e" stroke-width="1" fill="none"></path></g><g transform="translate(617 421) rotate(0 38 0)"><path d="M47.81 10.26 C58.52 6.36, 69.23 2.46, 76 0 M47.81 10.26 C58.77 6.27, 69.72 2.29, 76 0" stroke="#1e1e1e" stroke-width="1" fill="none"></path></g><g transform="translate(617 421) rotate(0 38 0)"><path d="M47.81 -10.26 C58.52 -6.36, 69.23 -2.46, 76 0 M47.81 -10.26 C58.77 -6.27, 69.72 -2.29, 76 0" stroke="#1e1e1e" stroke-width="1" fill="none"></path></g></g><mask></mask><g stroke-linecap="round"><g transform="translate(634 479) rotate(0 35 0)"><path d="M0 0 C11.67 0, 58.33 0, 70 0 M0 0 C11.67 0, 58.33 0, 70 0" stroke="#1e1e1e" stroke-width="1" fill="none"></path></g><g transform="translate(634 479) rotate(0 35 0)"><path d="M41.81 10.26 C47.94 8.03, 54.07 5.8, 70 0 M41.81 10.26 C52.08 6.52, 62.36 2.78, 70 0" stroke="#1e1e1e" stroke-width="1" fill="none"></path></g><g transform="translate(634 479) rotate(0 35 0)"><path d="M41.81 -10.26 C47.94 -8.03, 54.07 -5.8, 70 0 M41.81 -10.26 C52.08 -6.52, 62.36 -2.78, 70 0" stroke="#1e1e1e" stroke-width="1" fill="none"></path></g></g><mask></mask><g stroke-linecap="round"><g transform="translate(757 429) rotate(0 46 0)"><path d="M0 0 C15.33 0, 76.67 0, 92 0 M0 0 C15.33 0, 76.67 0, 92 0" stroke="#1e1e1e" stroke-width="1" fill="none"></path></g><g transform="translate(757 429) rotate(0 46 0)"><path d="M63.81 10.26 C73.28 6.81, 82.76 3.36, 92 0 M63.81 10.26 C72.9 6.95, 81.98 3.65, 92 0" stroke="#1e1e1e" stroke-width="1" fill="none"></path></g><g transform="translate(757 429) rotate(0 46 0)"><path d="M63.81 -10.26 C73.28 -6.81, 82.76 -3.36, 92 0 M63.81 -10.26 C72.9 -6.95, 81.98 -3.65, 92 0" stroke="#1e1e1e" stroke-width="1" fill="none"></path></g></g><mask></mask><g stroke-linecap="round"><g transform="translate(773 487) rotate(0 40 0)"><path d="M0 0 C13.33 0, 66.67 0, 80 0 M0 0 C13.33 0, 66.67 0, 80 0" stroke="#1e1e1e" stroke-width="1" fill="none"></path></g><g transform="translate(773 487) rotate(0 40 0)"><path d="M51.81 10.26 C62.7 6.3, 73.6 2.33, 80 0 M51.81 10.26 C58.93 7.67, 66.06 5.07, 80 0" stroke="#1e1e1e" stroke-width="1" fill="none"></path></g><g transform="translate(773 487) rotate(0 40 0)"><path d="M51.81 -10.26 C62.7 -6.3, 73.6 -2.33, 80 0 M51.81 -10.26 C58.93 -7.67, 66.06 -5.07, 80 0" stroke="#1e1e1e" stroke-width="1" fill="none"></path></g></g><mask></mask><g stroke-linecap="round"><g transform="translate(950 418) rotate(0 29.5 0)"><path d="M0 0 C9.83 0, 49.17 0, 59 0 M0 0 C9.83 0, 49.17 0, 59 0" stroke="#1e1e1e" stroke-width="1" fill="none"></path></g><g transform="translate(950 418) rotate(0 29.5 0)"><path d="M31.28 10.09 C38.53 7.45, 45.79 4.81, 59 0 M31.28 10.09 C38.01 7.64, 44.75 5.19, 59 0" stroke="#1e1e1e" stroke-width="1" fill="none"></path></g><g transform="translate(950 418) rotate(0 29.5 0)"><path d="M31.28 -10.09 C38.53 -7.45, 45.79 -4.81, 59 0 M31.28 -10.09 C38.01 -7.64, 44.75 -5.19, 59 0" stroke="#1e1e1e" stroke-width="1" fill="none"></path></g></g><mask></mask><g stroke-linecap="round"><g transform="translate(920 543) rotate(0 40 0)"><path d="M0 0 C13.33 0, 66.67 0, 80 0 M0 0 C13.33 0, 66.67 0, 80 0" stroke="#1e1e1e" stroke-width="1" fill="none"></path></g><g transform="translate(920 543) rotate(0 40 0)"><path d="M51.81 10.26 C58.49 7.83, 65.18 5.4, 80 0 M51.81 10.26 C57.78 8.09, 63.75 5.91, 80 0" stroke="#1e1e1e" stroke-width="1" fill="none"></path></g><g transform="translate(920 543) rotate(0 40 0)"><path d="M51.81 -10.26 C58.49 -7.83, 65.18 -5.4, 80 0 M51.81 -10.26 C57.78 -8.09, 63.75 -5.91, 80 0" stroke="#1e1e1e" stroke-width="1" fill="none"></path></g></g><mask></mask><g stroke-linecap="round"><g transform="translate(734 682) rotate(0 47 0)"><path d="M0 0 C15.67 0, 78.33 0, 94 0 M0 0 C15.67 0, 78.33 0, 94 0" stroke="#1e1e1e" stroke-width="1" fill="none"></path></g><g transform="translate(734 682) rotate(0 47 0)"><path d="M65.81 10.26 C71.95 8.03, 78.08 5.79, 94 0 M65.81 10.26 C72.97 7.66, 80.12 5.05, 94 0" stroke="#1e1e1e" stroke-width="1" fill="none"></path></g><g transform="translate(734 682) rotate(0 47 0)"><path d="M65.81 -10.26 C71.95 -8.03, 78.08 -5.79, 94 0 M65.81 -10.26 C72.97 -7.66, 80.12 -5.05, 94 0" stroke="#1e1e1e" stroke-width="1" fill="none"></path></g></g><mask></mask><g stroke-linecap="round"><g transform="translate(801 625) rotate(0 47 0)"><path d="M0 0 C15.67 0, 78.33 0, 94 0 M0 0 C15.67 0, 78.33 0, 94 0" stroke="#1e1e1e" stroke-width="1" fill="none"></path></g><g transform="translate(801 625) rotate(0 47 0)"><path d="M65.81 10.26 C73.64 7.41, 81.47 4.56, 94 0 M65.81 10.26 C72.37 7.87, 78.92 5.49, 94 0" stroke="#1e1e1e" stroke-width="1" fill="none"></path></g><g transform="translate(801 625) rotate(0 47 0)"><path d="M65.81 -10.26 C73.64 -7.41, 81.47 -4.56, 94 0 M65.81 -10.26 C72.37 -7.87, 78.92 -5.49, 94 0" stroke="#1e1e1e" stroke-width="1" fill="none"></path></g></g><mask></mask><g stroke-linecap="round"><g transform="translate(915 682) rotate(0 40 0)"><path d="M0 0 C13.33 0, 66.67 0, 80 0 M0 0 C13.33 0, 66.67 0, 80 0" stroke="#1e1e1e" stroke-width="1" fill="none"></path></g><g transform="translate(915 682) rotate(0 40 0)"><path d="M51.81 10.26 C61.54 6.72, 71.27 3.18, 80 0 M51.81 10.26 C61.02 6.91, 70.24 3.55, 80 0" stroke="#1e1e1e" stroke-width="1" fill="none"></path></g><g transform="translate(915 682) rotate(0 40 0)"><path d="M51.81 -10.26 C61.54 -6.72, 71.27 -3.18, 80 0 M51.81 -10.26 C61.02 -6.91, 70.24 -3.55, 80 0" stroke="#1e1e1e" stroke-width="1" fill="none"></path></g></g><mask></mask><g stroke-linecap="round"><g transform="translate(633 622) rotate(0 23 -35)"><path d="M0 0 C7.67 -11.67, 38.33 -58.33, 46 -70 M0 0 C7.67 -11.67, 38.33 -58.33, 46 -70" stroke="#1e1e1e" stroke-width="1" fill="none"></path></g><g transform="translate(633 622) rotate(0 23 -35)"><path d="M39.09 -40.81 C41.11 -49.32, 43.12 -57.84, 46 -70 M39.09 -40.81 C40.84 -48.18, 42.58 -55.55, 46 -70" stroke="#1e1e1e" stroke-width="1" fill="none"></path></g><g transform="translate(633 622) rotate(0 23 -35)"><path d="M21.94 -52.08 C28.96 -57.3, 35.98 -62.53, 46 -70 M21.94 -52.08 C28.02 -56.6, 34.09 -61.13, 46 -70" stroke="#1e1e1e" stroke-width="1" fill="none"></path></g></g><mask></mask><g stroke-linecap="round"><g transform="translate(690 605) rotate(0 30 -30)"><path d="M0 0 C10 -10, 50 -50, 60 -60 M0 0 C10 -10, 50 -50, 60 -60" stroke="#1e1e1e" stroke-width="1" fill="none"></path></g><g transform="translate(690 605) rotate(0 30 -30)"><path d="M47.32 -32.81 C50.24 -39.07, 53.16 -45.33, 60 -60 M47.32 -32.81 C52.32 -43.53, 57.32 -54.25, 60 -60" stroke="#1e1e1e" stroke-width="1" fill="none"></path></g><g transform="translate(690 605) rotate(0 30 -30)"><path d="M32.81 -47.32 C39.07 -50.24, 45.33 -53.16, 60 -60 M32.81 -47.32 C43.53 -52.32, 54.25 -57.32, 60 -60" stroke="#1e1e1e" stroke-width="1" fill="none"></path></g></g><mask></mask><g stroke-linecap="round"><g transform="translate(753 522) rotate(0 54.5 -1)"><path d="M0 0 C18.17 -0.33, 90.83 -1.67, 109 -2 M0 0 C18.17 -0.33, 90.83 -1.67, 109 -2" stroke="#1e1e1e" stroke-width="1" fill="none"></path></g><g transform="translate(753 522) rotate(0 54.5 -1)"><path d="M81 8.78 C87.13 6.42, 93.25 4.06, 109 -2 M81 8.78 C88.69 5.82, 96.38 2.86, 109 -2" stroke="#1e1e1e" stroke-width="1" fill="none"></path></g><g transform="translate(753 522) rotate(0 54.5 -1)"><path d="M80.63 -11.74 C86.83 -9.61, 93.04 -7.48, 109 -2 M80.63 -11.74 C88.42 -9.07, 96.21 -6.39, 109 -2" stroke="#1e1e1e" stroke-width="1" fill="none"></path></g></g><mask></mask><g stroke-linecap="round"><g transform="translate(854 564) rotate(0 30.5 -31)"><path d="M0 0 C10.17 -10.33, 50.83 -51.67, 61 -62 M0 0 C10.17 -10.33, 50.83 -51.67, 61 -62" stroke="#1e1e1e" stroke-width="1" fill="none"></path></g><g transform="translate(854 564) rotate(0 30.5 -31)"><path d="M48.54 -34.71 C51.58 -41.35, 54.61 -48, 61 -62 M48.54 -34.71 C52.9 -44.25, 57.25 -53.78, 61 -62" stroke="#1e1e1e" stroke-width="1" fill="none"></path></g><g transform="translate(854 564) rotate(0 30.5 -31)"><path d="M33.91 -49.1 C40.51 -52.24, 47.11 -55.38, 61 -62 M33.91 -49.1 C43.38 -53.61, 52.85 -58.12, 61 -62" stroke="#1e1e1e" stroke-width="1" fill="none"></path></g></g><mask></mask><g stroke-linecap="round"><g transform="translate(873 472) rotate(0 8 -28)"><path d="M0 0 C2.67 -9.33, 13.33 -46.67, 16 -56 M0 0 C2.67 -9.33, 13.33 -46.67, 16 -56" stroke="#1e1e1e" stroke-width="1" fill="none"></path></g><g transform="translate(873 472) rotate(0 8 -28)"><path d="M18.06 -26.95 C17.63 -33.01, 17.2 -39.07, 16 -56 M18.06 -26.95 C17.56 -34.06, 17.05 -41.17, 16 -56" stroke="#1e1e1e" stroke-width="1" fill="none"></path></g><g transform="translate(873 472) rotate(0 8 -28)"><path d="M-1.09 -32.42 C2.47 -37.34, 6.04 -42.26, 16 -56 M-1.09 -32.42 C3.09 -38.19, 7.27 -43.96, 16 -56" stroke="#1e1e1e" stroke-width="1" fill="none"></path></g></g><mask></mask><g stroke-linecap="round" transform="translate(10 867) rotate(0 203 163)"><path d="M-0.31 -0.99 C81.54 3.18, 163.99 2.27, 407.04 0.26 M0.48 -0.38 C154.86 -1.24, 310.51 -1.76, 405.75 -0.06 M406.26 -0.6 C408.09 68.74, 408.31 136.22, 406.35 326.7 M406.61 -0.25 C406.59 123.26, 407.03 247.71, 406.08 326.46 M405.88 325.97 C259.21 328.58, 115.27 327.52, 0.28 325.55 M406.08 326.41 C272.82 324.15, 140.79 323.91, 0.15 325.67 M-0.75 326.63 C-0.37 197.88, -0.41 70.53, 0.76 1.16 M-0.26 325.8 C1.88 242.37, 2.09 157.14, 0.51 -0.5" stroke="#1e1e1e" stroke-width="1" fill="none"></path></g><g stroke-linecap="round"><g transform="translate(280 908) rotate(0 -22.182945787649032 132)"><path d="M0 0 C-7.33 20.17, -40.5 77, -44 121 C-47.5 165, -24.83 240.17, -21 264 M0 0 C-7.33 20.17, -40.5 77, -44 121 C-47.5 165, -24.83 240.17, -21 264" stroke="#1e1e1e" stroke-width="2" fill="none"></path></g></g><mask></mask><g stroke-linecap="round"><g transform="translate(236 879) rotate(0 28.664300105102654 153.40570720344306)"><path d="M0 0 C-5.33 11.17, -25.5 33.67, -32 67 C-38.5 100.33, -41 160.83, -39 200 C-37 239.17, -33.83 282.83, -20 302 C-6.17 321.17, 27.33 315, 44 315 C60.67 315, 75.33 316.67, 80 302 C84.67 287.33, 76.83 253.67, 72 227 C67.17 200.33, 49.5 172, 51 142 C52.5 112, 73.67 70.83, 81 47 C88.33 23.17, 102.17 8.33, 95 -1 C87.83 -10.33, 53.83 -9.17, 38 -9 C22.17 -8.83, 6.33 -1.5, 0 0" stroke="#1e1e1e" stroke-width="1.5" fill="none" stroke-dasharray="8 9"></path></g></g><mask></mask><g stroke-linecap="round"><g transform="translate(284 945) rotate(0 -23 -13.5)"><path d="M0 0 C-7.67 -4.5, -38.33 -22.5, -46 -27 M0 0 C-7.67 -4.5, -38.33 -22.5, -46 -27" stroke="#1e1e1e" stroke-width="1" fill="none"></path></g><g transform="translate(284 945) rotate(0 -23 -13.5)"><path d="M-19.77 -22.18 C-27.99 -23.69, -36.2 -25.2, -46 -27 M-19.77 -22.18 C-30.05 -24.07, -40.33 -25.96, -46 -27" stroke="#1e1e1e" stroke-width="1" fill="none"></path></g><g transform="translate(284 945) rotate(0 -23 -13.5)"><path d="M-29 -6.45 C-34.33 -12.89, -39.65 -19.32, -46 -27 M-29 -6.45 C-35.66 -14.5, -42.32 -22.55, -46 -27" stroke="#1e1e1e" stroke-width="1" fill="none"></path></g></g><mask></mask><g stroke-linecap="round"><g transform="translate(271 1020) rotate(0 -30.5 -1)"><path d="M0 0 C-10.17 -0.33, -50.83 -1.67, -61 -2 M0 0 C-10.17 -0.33, -50.83 -1.67, -61 -2" stroke="#1e1e1e" stroke-width="1" fill="none"></path></g><g transform="translate(271 1020) rotate(0 -30.5 -1)"><path d="M-32.49 -11.33 C-40.48 -8.72, -48.47 -6.1, -61 -2 M-32.49 -11.33 C-42.44 -8.07, -52.4 -4.82, -61 -2" stroke="#1e1e1e" stroke-width="1" fill="none"></path></g><g transform="translate(271 1020) rotate(0 -30.5 -1)"><path d="M-33.16 9.18 C-40.96 6.05, -48.76 2.91, -61 -2 M-33.16 9.18 C-42.88 5.28, -52.6 1.37, -61 -2" stroke="#1e1e1e" stroke-width="1" fill="none"></path></g></g><mask></mask><g stroke-linecap="round"><g transform="translate(293 1129) rotate(0 -37.5 8)"><path d="M0 0 C-12.5 2.67, -62.5 13.33, -75 16 M0 0 C-12.5 2.67, -62.5 13.33, -75 16" stroke="#1e1e1e" stroke-width="1" fill="none"></path></g><g transform="translate(293 1129) rotate(0 -37.5 8)"><path d="M-49.57 0.08 C-58.45 5.64, -67.33 11.2, -75 16 M-49.57 0.08 C-59.65 6.39, -69.73 12.7, -75 16" stroke="#1e1e1e" stroke-width="1" fill="none"></path></g><g transform="translate(293 1129) rotate(0 -37.5 8)"><path d="M-45.29 20.15 C-55.66 18.7, -66.04 17.25, -75 16 M-45.29 20.15 C-57.07 18.51, -68.85 16.86, -75 16" stroke="#1e1e1e" stroke-width="1" fill="none"></path></g></g><mask></mask><g stroke-linecap="round" transform="translate(598 859.027327529091) rotate(0 203 163)"><path d="M-1.06 -1.08 C92.07 -0.8, 185.43 -0.11, 405.96 0.41 M0.47 -0.1 C156.8 -2.36, 312.25 -1.58, 406.33 0.12 M407.05 1.1 C403.9 67.75, 403.75 133.94, 404.84 326.4 M406.46 -0.66 C405.42 127.3, 405.3 253.57, 405.92 326.35 M405.07 325.6 C245.85 325.28, 86.72 324.47, -0.14 325.49 M405.66 325.85 C289.64 324.88, 173.04 325.07, 0.32 326.46 M1.33 326.7 C-1.68 258.09, -0.32 187.73, -0.6 0.09 M0.56 325.71 C-0.75 233.82, -0.8 143.18, 0.66 0.41" stroke="#1e1e1e" stroke-width="1" fill="none"></path></g><g stroke-linecap="round"><g transform="translate(868 900.027327529091) rotate(0 -22.182945787649032 132)"><path d="M0 0 C-7.33 20.17, -40.5 77, -44 121 C-47.5 165, -24.83 240.17, -21 264 M0 0 C-7.33 20.17, -40.5 77, -44 121 C-47.5 165, -24.83 240.17, -21 264" stroke="#1e1e1e" stroke-width="2" fill="none"></path></g></g><mask></mask><g stroke-linecap="round"><g transform="translate(824 871.027327529091) rotate(0 28.66430010510271 153.40570720344306)"><path d="M0 0 C-5.33 11.17, -25.5 33.67, -32 67 C-38.5 100.33, -41 160.83, -39 200 C-37 239.17, -33.83 282.83, -20 302 C-6.17 321.17, 27.33 315, 44 315 C60.67 315, 75.33 316.67, 80 302 C84.67 287.33, 76.83 253.67, 72 227 C67.17 200.33, 49.5 172, 51 142 C52.5 112, 73.67 70.83, 81 47 C88.33 23.17, 102.17 8.33, 95 -1 C87.83 -10.33, 53.83 -9.17, 38 -9 C22.17 -8.83, 6.33 -1.5, 0 0" stroke="#1e1e1e" stroke-width="1.5" fill="none" stroke-dasharray="8 9"></path></g></g><mask></mask><g stroke-linecap="round"><g transform="translate(622 890) rotate(0 41.5 0)"><path d="M0 0 C13.83 0, 69.17 0, 83 0 M0 0 C13.83 0, 69.17 0, 83 0" stroke="#1e1e1e" stroke-width="1" fill="none"></path></g><g transform="translate(622 890) rotate(0 41.5 0)"><path d="M54.81 10.26 C65.88 6.23, 76.95 2.2, 83 0 M54.81 10.26 C63.75 7.01, 72.69 3.75, 83 0" stroke="#1e1e1e" stroke-width="1" fill="none"></path></g><g transform="translate(622 890) rotate(0 41.5 0)"><path d="M54.81 -10.26 C65.88 -6.23, 76.95 -2.2, 83 0 M54.81 -10.26 C63.75 -7.01, 72.69 -3.75, 83 0" stroke="#1e1e1e" stroke-width="1" fill="none"></path></g></g><mask></mask><g stroke-linecap="round"><g transform="translate(676 954) rotate(0 38.5 0)"><path d="M0 0 C12.83 0, 64.17 0, 77 0 M0 0 C12.83 0, 64.17 0, 77 0" stroke="#1e1e1e" stroke-width="1" fill="none"></path></g><g transform="translate(676 954) rotate(0 38.5 0)"><path d="M48.81 10.26 C54.54 8.17, 60.28 6.09, 77 0 M48.81 10.26 C54.98 8.01, 61.15 5.77, 77 0" stroke="#1e1e1e" stroke-width="1" fill="none"></path></g><g transform="translate(676 954) rotate(0 38.5 0)"><path d="M48.81 -10.26 C54.54 -8.17, 60.28 -6.09, 77 0 M48.81 -10.26 C54.98 -8.01, 61.15 -5.77, 77 0" stroke="#1e1e1e" stroke-width="1" fill="none"></path></g></g><mask></mask><g stroke-linecap="round"><g transform="translate(621 1026) rotate(0 42.5 0)"><path d="M0 0 C14.17 0, 70.83 0, 85 0 M0 0 C14.17 0, 70.83 0, 85 0" stroke="#1e1e1e" stroke-width="1" fill="none"></path></g><g transform="translate(621 1026) rotate(0 42.5 0)"><path d="M56.81 10.26 C64.45 7.48, 72.09 4.7, 85 0 M56.81 10.26 C65.97 6.92, 75.14 3.59, 85 0" stroke="#1e1e1e" stroke-width="1" fill="none"></path></g><g transform="translate(621 1026) rotate(0 42.5 0)"><path d="M56.81 -10.26 C64.45 -7.48, 72.09 -4.7, 85 0 M56.81 -10.26 C65.97 -6.92, 75.14 -3.59, 85 0" stroke="#1e1e1e" stroke-width="1" fill="none"></path></g></g><mask></mask><g stroke-linecap="round"><g transform="translate(669 1080) rotate(0 44.5 0)"><path d="M0 0 C14.83 0, 74.17 0, 89 0 M0 0 C14.83 0, 74.17 0, 89 0" stroke="#1e1e1e" stroke-width="1" fill="none"></path></g><g transform="translate(669 1080) rotate(0 44.5 0)"><path d="M60.81 10.26 C68.04 7.63, 75.27 5, 89 0 M60.81 10.26 C69.08 7.25, 77.36 4.24, 89 0" stroke="#1e1e1e" stroke-width="1" fill="none"></path></g><g transform="translate(669 1080) rotate(0 44.5 0)"><path d="M60.81 -10.26 C68.04 -7.63, 75.27 -5, 89 0 M60.81 -10.26 C69.08 -7.25, 77.36 -4.24, 89 0" stroke="#1e1e1e" stroke-width="1" fill="none"></path></g></g><mask></mask><g stroke-linecap="round"><g transform="translate(622 1147) rotate(0 46.5 0)"><path d="M0 0 C15.5 0, 77.5 0, 93 0 M0 0 C15.5 0, 77.5 0, 93 0" stroke="#1e1e1e" stroke-width="1" fill="none"></path></g><g transform="translate(622 1147) rotate(0 46.5 0)"><path d="M64.81 10.26 C74.85 6.61, 84.9 2.95, 93 0 M64.81 10.26 C74.4 6.77, 84 3.28, 93 0" stroke="#1e1e1e" stroke-width="1" fill="none"></path></g><g transform="translate(622 1147) rotate(0 46.5 0)"><path d="M64.81 -10.26 C74.85 -6.61, 84.9 -2.95, 93 0 M64.81 -10.26 C74.4 -6.77, 84 -3.28, 93 0" stroke="#1e1e1e" stroke-width="1" fill="none"></path></g></g><mask></mask><g stroke-linecap="round"><g transform="translate(817 916) rotate(0 18.5 -24)"><path d="M0 0 C6.17 -8, 30.83 -40, 37 -48 M0 0 C6.17 -8, 30.83 -40, 37 -48" stroke="#1e1e1e" stroke-width="1" fill="none"></path></g><g transform="translate(817 916) rotate(0 18.5 -24)"><path d="M27.92 -19.41 C31.49 -30.66, 35.07 -41.91, 37 -48 M27.92 -19.41 C30.76 -28.36, 33.6 -37.31, 37 -48" stroke="#1e1e1e" stroke-width="1" fill="none"></path></g><g transform="translate(817 916) rotate(0 18.5 -24)"><path d="M11.66 -31.94 C21.63 -38.26, 31.6 -44.58, 37 -48 M11.66 -31.94 C19.59 -36.97, 27.53 -41.99, 37 -48" stroke="#1e1e1e" stroke-width="1" fill="none"></path></g></g><mask></mask><g stroke-linecap="round"><g transform="translate(806 955) rotate(0 6.5 -13)"><path d="M0 0 C2.17 -4.33, 10.83 -21.67, 13 -26 M0 0 C2.17 -4.33, 10.83 -21.67, 13 -26" stroke="#1e1e1e" stroke-width="1" fill="none"></path></g><g transform="translate(806 955) rotate(0 6.5 -13)"><path d="M11.34 -11.56 C11.75 -15.17, 12.17 -18.77, 13 -26 M11.34 -11.56 C11.82 -15.75, 12.3 -19.95, 13 -26" stroke="#1e1e1e" stroke-width="1" fill="none"></path></g><g transform="translate(806 955) rotate(0 6.5 -13)"><path d="M2.45 -16.01 C5.08 -18.5, 7.72 -21, 13 -26 M2.45 -16.01 C5.51 -18.91, 8.57 -21.81, 13 -26" stroke="#1e1e1e" stroke-width="1" fill="none"></path></g></g><mask></mask><g stroke-linecap="round"><g transform="translate(796 1035) rotate(0 0.5 10.5)"><path d="M0 0 C0.17 3.5, 0.83 17.5, 1 21 M0 0 C0.17 3.5, 0.83 17.5, 1 21" stroke="#1e1e1e" stroke-width="1" fill="none"></path></g><g transform="translate(796 1035) rotate(0 0.5 10.5)"><path d="M-3.06 11.3 C-2.05 13.73, -1.03 16.15, 1 21 M-3.06 11.3 C-1.94 13.99, -0.81 16.67, 1 21" stroke="#1e1e1e" stroke-width="1" fill="none"></path></g><g transform="translate(796 1035) rotate(0 0.5 10.5)"><path d="M4.12 10.96 C3.34 13.47, 2.56 15.98, 1 21 M4.12 10.96 C3.26 13.74, 2.39 16.52, 1 21" stroke="#1e1e1e" stroke-width="1" fill="none"></path></g></g><mask></mask><g stroke-linecap="round"><g transform="translate(806 1093) rotate(0 5 18.5)"><path d="M0 0 C1.67 6.17, 8.33 30.83, 10 37 M0 0 C1.67 6.17, 8.33 30.83, 10 37" stroke="#1e1e1e" stroke-width="1" fill="none"></path></g><g transform="translate(806 1093) rotate(0 5 18.5)"><path d="M-1.03 21.33 C2.88 26.88, 6.79 32.43, 10 37 M-1.03 21.33 C2.48 26.31, 5.99 31.29, 10 37" stroke="#1e1e1e" stroke-width="1" fill="none"></path></g><g transform="translate(806 1093) rotate(0 5 18.5)"><path d="M11.63 17.91 C11.05 24.67, 10.47 31.43, 10 37 M11.63 17.91 C11.11 23.98, 10.59 30.05, 10 37" stroke="#1e1e1e" stroke-width="1" fill="none"></path></g></g><mask></mask><g stroke-linecap="round"><g transform="translate(824 1170) rotate(0 5 6.5)"><path d="M0 0 C1.67 2.17, 8.33 10.83, 10 13 M0 0 C1.67 2.17, 8.33 10.83, 10 13" stroke="#1e1e1e" stroke-width="1" fill="none"></path></g><g transform="translate(824 1170) rotate(0 5 6.5)"><path d="M3.08 8.6 C5.64 10.23, 8.21 11.86, 10 13 M3.08 8.6 C4.87 9.74, 6.66 10.88, 10 13" stroke="#1e1e1e" stroke-width="1" fill="none"></path></g><g transform="translate(824 1170) rotate(0 5 6.5)"><path d="M7.52 5.18 C8.44 8.08, 9.36 10.97, 10 13 M7.52 5.18 C8.16 7.2, 8.8 9.22, 10 13" stroke="#1e1e1e" stroke-width="1" fill="none"></path></g></g><mask></mask><g stroke-linecap="round"><g transform="translate(946 878) rotate(0 24 0)"><path d="M0 0 C8 0, 40 0, 48 0 M0 0 C8 0, 40 0, 48 0" stroke="#1e1e1e" stroke-width="1" fill="none"></path></g><g transform="translate(946 878) rotate(0 24 0)"><path d="M25.45 8.21 C30.66 6.31, 35.88 4.41, 48 0 M25.45 8.21 C30.18 6.49, 34.9 4.77, 48 0" stroke="#1e1e1e" stroke-width="1" fill="none"></path></g><g transform="translate(946 878) rotate(0 24 0)"><path d="M25.45 -8.21 C30.66 -6.31, 35.88 -4.41, 48 0 M25.45 -8.21 C30.18 -6.49, 34.9 -4.77, 48 0" stroke="#1e1e1e" stroke-width="1" fill="none"></path></g></g><mask></mask><g stroke-linecap="round"><g transform="translate(928 944) rotate(0 29 0)"><path d="M0 0 C9.67 0, 48.33 0, 58 0 M0 0 C9.67 0, 48.33 0, 58 0" stroke="#1e1e1e" stroke-width="1" fill="none"></path></g><g transform="translate(928 944) rotate(0 29 0)"><path d="M30.75 9.92 C37.07 7.62, 43.4 5.31, 58 0 M30.75 9.92 C39.93 6.58, 49.11 3.24, 58 0" stroke="#1e1e1e" stroke-width="1" fill="none"></path></g><g transform="translate(928 944) rotate(0 29 0)"><path d="M30.75 -9.92 C37.07 -7.62, 43.4 -5.31, 58 0 M30.75 -9.92 C39.93 -6.58, 49.11 -3.24, 58 0" stroke="#1e1e1e" stroke-width="1" fill="none"></path></g></g><mask></mask><g stroke-linecap="round"><g transform="translate(940 1004) rotate(0 29 0)"><path d="M0 0 C9.67 0, 48.33 0, 58 0 M0 0 C9.67 0, 48.33 0, 58 0" stroke="#1e1e1e" stroke-width="1" fill="none"></path></g><g transform="translate(940 1004) rotate(0 29 0)"><path d="M30.75 9.92 C38.65 7.04, 46.55 4.17, 58 0 M30.75 9.92 C39.68 6.67, 48.6 3.42, 58 0" stroke="#1e1e1e" stroke-width="1" fill="none"></path></g><g transform="translate(940 1004) rotate(0 29 0)"><path d="M30.75 -9.92 C38.65 -7.04, 46.55 -4.17, 58 0 M30.75 -9.92 C39.68 -6.67, 48.6 -3.42, 58 0" stroke="#1e1e1e" stroke-width="1" fill="none"></path></g></g><mask></mask><g stroke-linecap="round"><g transform="translate(901 1067) rotate(0 33.5 0)"><path d="M0 0 C11.17 0, 55.83 0, 67 0 M0 0 C11.17 0, 55.83 0, 67 0" stroke="#1e1e1e" stroke-width="1" fill="none"></path></g><g transform="translate(901 1067) rotate(0 33.5 0)"><path d="M38.81 10.26 C45.07 7.98, 51.33 5.7, 67 0 M38.81 10.26 C48.18 6.85, 57.54 3.44, 67 0" stroke="#1e1e1e" stroke-width="1" fill="none"></path></g><g transform="translate(901 1067) rotate(0 33.5 0)"><path d="M38.81 -10.26 C45.07 -7.98, 51.33 -5.7, 67 0 M38.81 -10.26 C48.18 -6.85, 57.54 -3.44, 67 0" stroke="#1e1e1e" stroke-width="1" fill="none"></path></g></g><mask></mask><g stroke-linecap="round"><g transform="translate(941 1139) rotate(0 28 0)"><path d="M0 0 C9.33 0, 46.67 0, 56 0 M0 0 C9.33 0, 46.67 0, 56 0" stroke="#1e1e1e" stroke-width="1" fill="none"></path></g><g transform="translate(941 1139) rotate(0 28 0)"><path d="M29.69 9.58 C37.99 6.56, 46.28 3.54, 56 0 M29.69 9.58 C35.85 7.33, 42.02 5.09, 56 0" stroke="#1e1e1e" stroke-width="1" fill="none"></path></g><g transform="translate(941 1139) rotate(0 28 0)"><path d="M29.69 -9.58 C37.99 -6.56, 46.28 -3.54, 56 0 M29.69 -9.58 C35.85 -7.33, 42.02 -5.09, 56 0" stroke="#1e1e1e" stroke-width="1" fill="none"></path></g></g><mask></mask></svg>