<svg version="1.1" xmlns="http://www.w3.org/2000/svg" viewBox="0 0 1016.3333333333333 854.0243735435596" width="1016.3333333333333" height="854.0243735435596">
  <!-- svg-source:excalidraw -->
  
  <defs>
    <style class="style-fonts">
      @font-face {
        font-family: "Virgil";
        src: url("https://excalidraw.com/Virgil.woff2");
      }
      @font-face {
        font-family: "Cascadia";
        src: url("https://excalidraw.com/Cascadia.woff2");
      }
    </style>
    
  </defs>
  <rect x="0" y="0" width="1016.3333333333333" height="854.0243735435596" fill="#ffffff"></rect><g stroke-linecap="round" transform="translate(16 56.07902860174215) rotate(0 203 163)"><path d="M0.65 -0.58 C159.54 0.52, 318.94 -0.29, 405.97 -0.61 M0.26 -0.24 C145.2 -1.31, 290.67 -1.54, 405.79 0.06 M405.84 0.37 C407.04 113.16, 405.53 226.9, 406.56 325.16 M405.95 0.29 C407.28 102.75, 407.3 204.97, 406.27 326.45 M405.72 327.08 C286.47 325.01, 166.72 325.44, -0.45 325.87 M405.78 326.47 C312.74 324.99, 219 324.65, -0.13 325.82 M-0.18 325.02 C-1 257.27, -1.05 185.44, -0.71 0.2 M-0.31 326.34 C-1.93 257.47, -2.55 187.32, 0.57 0.05" stroke="#1e1e1e" stroke-width="1" fill="none"></path></g><g stroke-linecap="round" transform="translate(58 328.07902860174215) rotate(0 8 8)"><path d="M16 8 C16 8.46, 15.96 8.93, 15.88 9.39 C15.8 9.85, 15.68 10.3, 15.52 10.74 C15.36 11.17, 15.16 11.6, 14.93 12 C14.7 12.4, 14.43 12.79, 14.13 13.14 C13.83 13.5, 13.5 13.83, 13.14 14.13 C12.79 14.43, 12.4 14.7, 12 14.93 C11.6 15.16, 11.17 15.36, 10.74 15.52 C10.3 15.68, 9.85 15.8, 9.39 15.88 C8.93 15.96, 8.46 16, 8 16 C7.54 16, 7.07 15.96, 6.61 15.88 C6.15 15.8, 5.7 15.68, 5.26 15.52 C4.83 15.36, 4.4 15.16, 4 14.93 C3.6 14.7, 3.21 14.43, 2.86 14.13 C2.5 13.83, 2.17 13.5, 1.87 13.14 C1.57 12.79, 1.3 12.4, 1.07 12 C0.84 11.6, 0.64 11.17, 0.48 10.74 C0.32 10.3, 0.2 9.85, 0.12 9.39 C0.04 8.93, 0 8.46, 0 8 C0 7.54, 0.04 7.07, 0.12 6.61 C0.2 6.15, 0.32 5.7, 0.48 5.26 C0.64 4.83, 0.84 4.4, 1.07 4 C1.3 3.6, 1.57 3.21, 1.87 2.86 C2.17 2.5, 2.5 2.17, 2.86 1.87 C3.21 1.57, 3.6 1.3, 4 1.07 C4.4 0.84, 4.83 0.64, 5.26 0.48 C5.7 0.32, 6.15 0.2, 6.61 0.12 C7.07 0.04, 7.54 0, 8 0 C8.46 0, 8.93 0.04, 9.39 0.12 C9.85 0.2, 10.3 0.32, 10.74 0.48 C11.17 0.64, 11.6 0.84, 12 1.07 C12.4 1.3, 12.79 1.57, 13.14 1.87 C13.5 2.17, 13.83 2.5, 14.13 2.86 C14.43 3.21, 14.7 3.6, 14.93 4 C15.16 4.4, 15.36 4.83, 15.52 5.26 C15.68 5.7, 15.8 6.15, 15.88 6.61 C15.96 7.07, 15.98 7.77, 16 8 C16.02 8.23, 16.02 7.77, 16 8" stroke="none" stroke-width="0" fill="#1e1e1e"></path><path d="M16 8 C16 8.46, 15.96 8.93, 15.88 9.39 C15.8 9.85, 15.68 10.3, 15.52 10.74 C15.36 11.17, 15.16 11.6, 14.93 12 C14.7 12.4, 14.43 12.79, 14.13 13.14 C13.83 13.5, 13.5 13.83, 13.14 14.13 C12.79 14.43, 12.4 14.7, 12 14.93 C11.6 15.16, 11.17 15.36, 10.74 15.52 C10.3 15.68, 9.85 15.8, 9.39 15.88 C8.93 15.96, 8.46 16, 8 16 C7.54 16, 7.07 15.96, 6.61 15.88 C6.15 15.8, 5.7 15.68, 5.26 15.52 C4.83 15.36, 4.4 15.16, 4 14.93 C3.6 14.7, 3.21 14.43, 2.86 14.13 C2.5 13.83, 2.17 13.5, 1.87 13.14 C1.57 12.79, 1.3 12.4, 1.07 12 C0.84 11.6, 0.64 11.17, 0.48 10.74 C0.32 10.3, 0.2 9.85, 0.12 9.39 C0.04 8.93, 0 8.46, 0 8 C0 7.54, 0.04 7.07, 0.12 6.61 C0.2 6.15, 0.32 5.7, 0.48 5.26 C0.64 4.83, 0.84 4.4, 1.07 4 C1.3 3.6, 1.57 3.21, 1.87 2.86 C2.17 2.5, 2.5 2.17, 2.86 1.87 C3.21 1.57, 3.6 1.3, 4 1.07 C4.4 0.84, 4.83 0.64, 5.26 0.48 C5.7 0.32, 6.15 0.2, 6.61 0.12 C7.07 0.04, 7.54 0, 8 0 C8.46 0, 8.93 0.04, 9.39 0.12 C9.85 0.2, 10.3 0.32, 10.74 0.48 C11.17 0.64, 11.6 0.84, 12 1.07 C12.4 1.3, 12.79 1.57, 13.14 1.87 C13.5 2.17, 13.83 2.5, 14.13 2.86 C14.43 3.21, 14.7 3.6, 14.93 4 C15.16 4.4, 15.36 4.83, 15.52 5.26 C15.68 5.7, 15.8 6.15, 15.88 6.61 C15.96 7.07, 15.98 7.77, 16 8 C16.02 8.23, 16.02 7.77, 16 8" stroke="#1e1e1e" stroke-width="1" fill="none"></path></g><g stroke-linecap="round" transform="translate(300 104.07902860174215) rotate(0 8 8)"><path d="M16 8 C16 8.46, 15.96 8.93, 15.88 9.39 C15.8 9.85, 15.68 10.3, 15.52 10.74 C15.36 11.17, 15.16 11.6, 14.93 12 C14.7 12.4, 14.43 12.79, 14.13 13.14 C13.83 13.5, 13.5 13.83, 13.14 14.13 C12.79 14.43, 12.4 14.7, 12 14.93 C11.6 15.16, 11.17 15.36, 10.74 15.52 C10.3 15.68, 9.85 15.8, 9.39 15.88 C8.93 15.96, 8.46 16, 8 16 C7.54 16, 7.07 15.96, 6.61 15.88 C6.15 15.8, 5.7 15.68, 5.26 15.52 C4.83 15.36, 4.4 15.16, 4 14.93 C3.6 14.7, 3.21 14.43, 2.86 14.13 C2.5 13.83, 2.17 13.5, 1.87 13.14 C1.57 12.79, 1.3 12.4, 1.07 12 C0.84 11.6, 0.64 11.17, 0.48 10.74 C0.32 10.3, 0.2 9.85, 0.12 9.39 C0.04 8.93, 0 8.46, 0 8 C0 7.54, 0.04 7.07, 0.12 6.61 C0.2 6.15, 0.32 5.7, 0.48 5.26 C0.64 4.83, 0.84 4.4, 1.07 4 C1.3 3.6, 1.57 3.21, 1.87 2.86 C2.17 2.5, 2.5 2.17, 2.86 1.87 C3.21 1.57, 3.6 1.3, 4 1.07 C4.4 0.84, 4.83 0.64, 5.26 0.48 C5.7 0.32, 6.15 0.2, 6.61 0.12 C7.07 0.04, 7.54 0, 8 0 C8.46 0, 8.93 0.04, 9.39 0.12 C9.85 0.2, 10.3 0.32, 10.74 0.48 C11.17 0.64, 11.6 0.84, 12 1.07 C12.4 1.3, 12.79 1.57, 13.14 1.87 C13.5 2.17, 13.83 2.5, 14.13 2.86 C14.43 3.21, 14.7 3.6, 14.93 4 C15.16 4.4, 15.36 4.83, 15.52 5.26 C15.68 5.7, 15.8 6.15, 15.88 6.61 C15.96 7.07, 15.98 7.77, 16 8 C16.02 8.23, 16.02 7.77, 16 8" stroke="none" stroke-width="0" fill="#1e1e1e"></path><path d="M16 8 C16 8.46, 15.96 8.93, 15.88 9.39 C15.8 9.85, 15.68 10.3, 15.52 10.74 C15.36 11.17, 15.16 11.6, 14.93 12 C14.7 12.4, 14.43 12.79, 14.13 13.14 C13.83 13.5, 13.5 13.83, 13.14 14.13 C12.79 14.43, 12.4 14.7, 12 14.93 C11.6 15.16, 11.17 15.36, 10.74 15.52 C10.3 15.68, 9.85 15.8, 9.39 15.88 C8.93 15.96, 8.46 16, 8 16 C7.54 16, 7.07 15.96, 6.61 15.88 C6.15 15.8, 5.7 15.68, 5.26 15.52 C4.83 15.36, 4.4 15.16, 4 14.93 C3.6 14.7, 3.21 14.43, 2.86 14.13 C2.5 13.83, 2.17 13.5, 1.87 13.14 C1.57 12.79, 1.3 12.4, 1.07 12 C0.84 11.6, 0.64 11.17, 0.48 10.74 C0.32 10.3, 0.2 9.85, 0.12 9.39 C0.04 8.93, 0 8.46, 0 8 C0 7.54, 0.04 7.07, 0.12 6.61 C0.2 6.15, 0.32 5.7, 0.48 5.26 C0.64 4.83, 0.84 4.4, 1.07 4 C1.3 3.6, 1.57 3.21, 1.87 2.86 C2.17 2.5, 2.5 2.17, 2.86 1.87 C3.21 1.57, 3.6 1.3, 4 1.07 C4.4 0.84, 4.83 0.64, 5.26 0.48 C5.7 0.32, 6.15 0.2, 6.61 0.12 C7.07 0.04, 7.54 0, 8 0 C8.46 0, 8.93 0.04, 9.39 0.12 C9.85 0.2, 10.3 0.32, 10.74 0.48 C11.17 0.64, 11.6 0.84, 12 1.07 C12.4 1.3, 12.79 1.57, 13.14 1.87 C13.5 2.17, 13.83 2.5, 14.13 2.86 C14.43 3.21, 14.7 3.6, 14.93 4 C15.16 4.4, 15.36 4.83, 15.52 5.26 C15.68 5.7, 15.8 6.15, 15.88 6.61 C15.96 7.07, 15.98 7.77, 16 8 C16.02 8.23, 16.02 7.77, 16 8" stroke="#1e1e1e" stroke-width="1" fill="none"></path></g><g stroke-linecap="round"><g transform="translate(67 332.07902860174215) rotate(0 120.5 -109.5)"><path d="M0 0 C9.5 -21.5, 23.67 -107.83, 57 -129 C90.33 -150.17, 169.33 -112, 200 -127 C230.67 -142, 234.17 -203.67, 241 -219 M0 0 C9.5 -21.5, 23.67 -107.83, 57 -129 C90.33 -150.17, 169.33 -112, 200 -127 C230.67 -142, 234.17 -203.67, 241 -219" stroke="#1e1e1e" stroke-width="2" fill="none"></path></g></g><mask></mask><g stroke-linecap="round"><g transform="translate(36 324.07902860174215) rotate(0 154.53477993228682 -102.63285200766853)"><path d="M0 0 C7.17 -23.17, 7.5 -113, 43 -139 C78.5 -165, 177.83 -139.83, 213 -156 C248.17 -172.17, 242.33 -220.5, 254 -236 C265.67 -251.5, 273.83 -255.17, 283 -249 C292.17 -242.83, 310.33 -223.17, 309 -199 C307.67 -174.83, 293.17 -124.5, 275 -104 C256.83 -83.5, 225.33 -79.33, 200 -76 C174.67 -72.67, 143.83 -93.67, 123 -84 C102.17 -74.33, 85.33 -35.83, 75 -18 C64.67 -0.17, 71.5 12.33, 61 23 C50.5 33.67, 22.17 49.83, 12 46 C1.83 42.17, 2 7.67, 0 0" stroke="#1e1e1e" stroke-width="1.5" fill="none" stroke-dasharray="8 9"></path></g></g><mask></mask><g stroke-linecap="round"><g transform="translate(68 330.07902860174215) rotate(0 13.5 -43.5)"><path d="M0 0 C4.5 -14.5, 22.5 -72.5, 27 -87 M0 0 C4.5 -14.5, 22.5 -72.5, 27 -87" stroke="#1e1e1e" stroke-width="1" fill="none"></path></g><g transform="translate(68 330.07902860174215) rotate(0 13.5 -43.5)"><path d="M28.44 -57.03 C28.04 -65.33, 27.64 -73.63, 27 -87 M28.44 -57.03 C27.92 -67.96, 27.39 -78.88, 27 -87" stroke="#1e1e1e" stroke-width="1" fill="none"></path></g><g transform="translate(68 330.07902860174215) rotate(0 13.5 -43.5)"><path d="M8.84 -63.12 C13.87 -69.73, 18.9 -76.34, 27 -87 M8.84 -63.12 C15.46 -71.82, 22.08 -80.53, 27 -87" stroke="#1e1e1e" stroke-width="1" fill="none"></path></g></g><mask></mask><g stroke-linecap="round"><g transform="translate(153 197.07902860174215) rotate(0 44.5 6)"><path d="M0 0 C14.83 2, 74.17 10, 89 12 M0 0 C14.83 2, 74.17 10, 89 12" stroke="#1e1e1e" stroke-width="1" fill="none"></path></g><g transform="translate(153 197.07902860174215) rotate(0 44.5 6)"><path d="M59.69 18.4 C69.09 16.35, 78.49 14.3, 89 12 M59.69 18.4 C66.44 16.93, 73.18 15.45, 89 12" stroke="#1e1e1e" stroke-width="1" fill="none"></path></g><g transform="translate(153 197.07902860174215) rotate(0 44.5 6)"><path d="M62.43 -1.94 C70.95 2.53, 79.47 7, 89 12 M62.43 -1.94 C68.55 1.27, 74.66 4.48, 89 12" stroke="#1e1e1e" stroke-width="1" fill="none"></path></g></g><mask></mask><g stroke-linecap="round"><g transform="translate(280 192.07902860174215) rotate(0 11 -27.5)"><path d="M0 0 C3.67 -9.17, 18.33 -45.83, 22 -55 M0 0 C3.67 -9.17, 18.33 -45.83, 22 -55" stroke="#1e1e1e" stroke-width="1" fill="none"></path></g><g transform="translate(280 192.07902860174215) rotate(0 11 -27.5)"><path d="M21.07 -25.4 C21.38 -35.31, 21.69 -45.22, 22 -55 M21.07 -25.4 C21.42 -36.44, 21.76 -47.48, 22 -55" stroke="#1e1e1e" stroke-width="1" fill="none"></path></g><g transform="translate(280 192.07902860174215) rotate(0 11 -27.5)"><path d="M2.26 -32.92 C8.87 -40.31, 15.48 -47.7, 22 -55 M2.26 -32.92 C9.62 -41.16, 16.99 -49.39, 22 -55" stroke="#1e1e1e" stroke-width="1" fill="none"></path></g></g><mask></mask><g stroke-linecap="round"><g transform="translate(617.3333333333333 333.74569526840855) rotate(0 189.89667684604956 -150.83244185438383)" fill-rule="evenodd"><path d="M38.77 -167.7 C38.77 -167.7, 38.77 -167.7, 38.77 -167.7 M38.77 -167.7 C38.77 -167.7, 38.77 -167.7, 38.77 -167.7 M24.07 -144.7 C33.44 -155.47, 42.8 -166.24, 66.72 -193.76 M24.07 -144.7 C34.43 -156.61, 44.78 -168.52, 66.72 -193.76 M17.91 -131.51 C32.85 -148.7, 47.79 -165.89, 76.3 -198.68 M17.91 -131.51 C37.4 -153.93, 56.89 -176.35, 76.3 -198.68 M12.4 -119.07 C29.63 -138.9, 46.87 -158.73, 85.88 -203.6 M12.4 -119.07 C40.94 -151.91, 69.48 -184.74, 85.88 -203.6 M10.17 -110.41 C42.72 -147.86, 75.27 -185.3, 94.8 -207.77 M10.17 -110.41 C41 -145.88, 71.83 -181.34, 94.8 -207.77 M9.91 -104.01 C39.27 -137.79, 68.64 -171.57, 100.44 -208.16 M9.91 -104.01 C37.51 -135.76, 65.1 -167.51, 100.44 -208.16 M8.99 -96.86 C39.19 -131.6, 69.38 -166.33, 106.09 -208.56 M8.99 -96.86 C37.1 -129.2, 65.22 -161.54, 106.09 -208.56 M6.76 -88.2 C37.49 -123.55, 68.21 -158.89, 112.39 -209.71 M6.76 -88.2 C47.3 -134.84, 87.84 -181.47, 112.39 -209.71 M6.5 -81.8 C45.02 -126.11, 83.54 -170.42, 116.72 -208.59 M6.5 -81.8 C49.37 -131.12, 92.24 -180.43, 116.72 -208.59 M5.58 -74.65 C47.52 -122.9, 89.46 -171.14, 121.7 -208.23 M5.58 -74.65 C51.12 -127.04, 96.67 -179.43, 121.7 -208.23 M5.32 -68.25 C34.39 -101.69, 63.46 -135.14, 126.69 -207.87 M5.32 -68.25 C43.76 -112.48, 82.21 -156.7, 126.69 -207.87 M4.4 -61.1 C53.67 -117.78, 102.94 -174.46, 131.68 -207.51 M4.4 -61.1 C38.99 -100.89, 73.58 -140.68, 131.68 -207.51 M3.48 -53.95 C49.74 -107.15, 95.99 -160.36, 137.32 -207.91 M3.48 -53.95 C43.94 -100.48, 84.39 -147.02, 137.32 -207.91 M3.22 -47.55 C37.23 -86.67, 71.24 -125.79, 141.65 -206.79 M3.22 -47.55 C50.19 -101.58, 97.16 -155.61, 141.65 -206.79 M2.96 -41.15 C39.74 -83.46, 76.51 -125.76, 145.98 -205.68 M2.96 -41.15 C52.99 -98.7, 103.02 -156.25, 145.98 -205.68 M2.7 -34.75 C37.95 -75.31, 73.21 -115.86, 150.31 -204.56 M2.7 -34.75 C45.01 -83.42, 87.32 -132.1, 150.31 -204.56 M2.44 -28.36 C61.59 -96.4, 120.74 -164.44, 154.64 -203.45 M2.44 -28.36 C38.76 -70.13, 75.08 -111.91, 154.64 -203.45 M2.18 -21.96 C48 -74.67, 93.83 -127.39, 158.32 -201.58 M2.18 -21.96 C61.59 -90.31, 121.01 -158.66, 158.32 -201.58 M1.92 -15.56 C62.66 -85.44, 123.41 -155.32, 161.99 -199.71 M1.92 -15.56 C53.63 -75.05, 105.34 -134.53, 161.99 -199.71 M1.65 -9.16 C60.73 -77.12, 119.81 -145.08, 165.01 -197.08 M1.65 -9.16 C44.58 -58.55, 87.51 -107.93, 165.01 -197.08 M1.39 -2.76 C50.41 -59.15, 99.43 -115.54, 168.03 -194.46 M1.39 -2.76 C56.78 -66.48, 112.16 -130.19, 168.03 -194.46 M248.07 -286.53 C248.07 -286.53, 248.07 -286.53, 248.07 -286.53 M248.07 -286.53 C248.07 -286.53, 248.07 -286.53, 248.07 -286.53 M2.44 2.12 C39.9 -40.96, 77.35 -84.05, 171.05 -191.84 M2.44 2.12 C64.98 -69.81, 127.51 -141.74, 171.05 -191.84 M239.28 -270.33 C245.51 -277.49, 251.74 -284.65, 262.24 -296.74 M239.28 -270.33 C244.67 -276.52, 250.06 -282.72, 262.24 -296.74 M4.81 5.5 C51.65 -48.39, 98.5 -102.28, 173.41 -188.46 M4.81 5.5 C58.4 -56.15, 112 -117.81, 173.41 -188.46 M237.05 -261.66 C250.72 -277.39, 264.39 -293.11, 277.07 -307.7 M237.05 -261.66 C248.37 -274.68, 259.69 -287.7, 277.07 -307.7 M7.83 8.13 C41.54 -30.66, 75.26 -69.45, 175.78 -185.08 M7.83 8.13 C46.06 -35.86, 84.3 -79.85, 175.78 -185.08 M234.82 -253 C249.13 -269.46, 263.43 -285.91, 285.34 -311.11 M234.82 -253 C246.77 -266.75, 258.72 -280.5, 285.34 -311.11 M10.19 11.51 C70.1 -57.41, 130.01 -126.33, 178.8 -182.45 M10.19 11.51 C65.75 -52.41, 121.31 -116.33, 178.8 -182.45 M235.22 -247.36 C256.75 -272.13, 278.29 -296.9, 292.95 -313.77 M235.22 -247.36 C247.49 -261.48, 259.77 -275.6, 292.95 -313.77 M13.21 14.13 C68.8 -49.82, 124.38 -113.76, 181.16 -179.07 M13.21 14.13 C51.47 -29.88, 89.72 -73.89, 181.16 -179.07 M235.61 -241.72 C255.74 -264.87, 275.87 -288.03, 299.9 -315.68 M235.61 -241.72 C255.08 -264.12, 274.56 -286.52, 299.9 -315.68 M16.23 16.76 C73.47 -49.1, 130.72 -114.95, 183.52 -175.7 M16.23 16.76 C66.7 -41.31, 117.18 -99.38, 183.52 -175.7 M236.01 -236.07 C252.32 -254.84, 268.64 -273.61, 306.86 -317.58 M236.01 -236.07 C262.51 -266.56, 289.02 -297.05, 306.86 -317.58 M19.24 19.38 C39.32 -3.72, 59.4 -26.82, 107.16 -81.75 M19.24 19.38 C46.11 -11.53, 72.98 -42.44, 107.16 -81.75 M107.16 -81.75 C129.12 -107.01, 151.07 -132.27, 186.54 -173.07 M107.16 -81.75 C128.43 -106.23, 149.71 -130.7, 186.54 -173.07 M235.74 -229.67 C255.41 -252.3, 275.08 -274.93, 313.16 -318.73 M235.74 -229.67 C264.3 -262.52, 292.85 -295.36, 313.16 -318.73 M22.26 22 C37.74 4.2, 53.21 -13.6, 89.84 -55.73 M22.26 22 C35.88 6.34, 49.5 -9.33, 89.84 -55.73 M119.36 -89.69 C140.83 -114.39, 162.29 -139.08, 188.9 -169.69 M119.36 -89.69 C146.87 -121.34, 174.38 -152.98, 188.9 -169.69 M236.14 -224.03 C260.06 -251.55, 283.99 -279.07, 318.8 -319.13 M236.14 -224.03 C266.42 -258.87, 296.7 -293.7, 318.8 -319.13 M27.25 22.36 C43.14 4.08, 59.03 -14.2, 79.08 -37.26 M27.25 22.36 C40.99 6.55, 54.74 -9.26, 79.08 -37.26 M130.91 -96.88 C148.1 -116.65, 165.28 -136.43, 191.27 -166.31 M130.91 -96.88 C150.78 -119.75, 170.66 -142.61, 191.27 -166.31 M236.53 -218.39 C270.84 -257.86, 305.15 -297.33, 325.1 -320.27 M236.53 -218.39 C257.08 -242.02, 277.62 -265.65, 325.1 -320.27 M34.86 19.7 C43.45 9.83, 52.03 -0.05, 67.01 -17.28 M34.86 19.7 C42.33 11.12, 49.79 2.53, 67.01 -17.28 M137.86 -98.78 C155.66 -119.26, 173.46 -139.73, 194.28 -163.69 M137.86 -98.78 C156.21 -119.89, 174.56 -141, 194.28 -163.69 M236.93 -212.75 C266.93 -247.26, 296.93 -281.77, 332.71 -322.93 M236.93 -212.75 C274.46 -255.92, 311.99 -299.1, 332.71 -322.93 M144.16 -99.93 C159.05 -117.06, 173.94 -134.19, 197.3 -161.07 M144.16 -99.93 C162.72 -121.28, 181.27 -142.62, 197.3 -161.07 M237.98 -207.86 C270.62 -245.41, 303.27 -282.96, 338.36 -323.33 M237.98 -207.86 C268.09 -242.5, 298.21 -277.14, 338.36 -323.33 M149.81 -100.33 C164.77 -117.54, 179.73 -134.75, 200.32 -158.44 M149.81 -100.33 C164.11 -116.79, 178.42 -133.24, 200.32 -158.44 M236.41 -199.95 C261 -228.24, 285.59 -256.53, 343.34 -322.97 M236.41 -199.95 C260.31 -227.44, 284.21 -254.94, 343.34 -322.97 M154.79 -99.97 C164.77 -111.44, 174.74 -122.92, 204 -156.57 M154.79 -99.97 C168.65 -115.91, 182.5 -131.85, 204 -156.57 M235.49 -192.8 C278.06 -241.77, 320.63 -290.75, 347.67 -321.85 M235.49 -192.8 C258.39 -219.14, 281.28 -245.48, 347.67 -321.85 M159.78 -99.61 C172.96 -114.77, 186.14 -129.94, 209.64 -156.97 M159.78 -99.61 C173.42 -115.3, 187.07 -131, 209.64 -156.97 M237.85 -189.42 C278.11 -235.73, 318.37 -282.05, 352.66 -321.49 M237.85 -189.42 C267.55 -223.58, 297.24 -257.74, 352.66 -321.49 M164.11 -98.49 C235.1 -180.16, 306.1 -261.83, 355.68 -318.87 M164.11 -98.49 C233.77 -178.62, 303.42 -258.75, 355.68 -318.87 M169.1 -98.13 C234.83 -173.75, 300.56 -249.37, 359.35 -317 M169.1 -98.13 C241.18 -181.06, 313.27 -263.99, 359.35 -317 M174.74 -98.53 C219.14 -149.6, 263.53 -200.67, 363.03 -315.13 M174.74 -98.53 C218.2 -148.52, 261.66 -198.52, 363.03 -315.13 M179.07 -97.41 C252.16 -181.5, 325.25 -265.58, 366.05 -312.51 M179.07 -97.41 C241.08 -168.75, 303.09 -240.08, 366.05 -312.51 M183.4 -96.3 C257.3 -181.31, 331.19 -266.31, 368.41 -309.13 M183.4 -96.3 C244.38 -166.44, 305.35 -236.58, 368.41 -309.13 M187.73 -95.18 C249.76 -166.54, 311.79 -237.89, 370.77 -305.75 M187.73 -95.18 C235.09 -149.66, 282.45 -204.14, 370.77 -305.75 M192.06 -94.07 C232.68 -140.79, 273.3 -187.52, 371.82 -300.86 M192.06 -94.07 C244.04 -153.87, 296.02 -213.66, 371.82 -300.86 M196.4 -92.95 C243.57 -147.23, 290.75 -201.5, 373.53 -296.73 M196.4 -92.95 C245.44 -149.38, 294.49 -205.8, 373.53 -296.73 M201.38 -92.59 C254.18 -153.33, 306.97 -214.06, 374.58 -291.84 M201.38 -92.59 C255.75 -155.13, 310.11 -217.67, 374.58 -291.84 M205.71 -91.48 C252.66 -145.49, 299.61 -199.5, 376.29 -287.7 M205.71 -91.48 C253.13 -146.03, 300.55 -200.57, 376.29 -287.7 M210.04 -90.36 C251.95 -138.57, 293.86 -186.79, 377.34 -282.81 M210.04 -90.36 C274.12 -164.08, 338.2 -237.79, 377.34 -282.81 M214.38 -89.25 C262.36 -144.45, 310.35 -199.65, 378.39 -277.93 M214.38 -89.25 C268.3 -151.28, 322.22 -213.31, 378.39 -277.93 M219.36 -88.89 C267.78 -144.58, 316.19 -200.28, 379.44 -273.04 M219.36 -88.89 C259.53 -135.09, 299.69 -181.3, 379.44 -273.04 M223.69 -87.77 C265.89 -136.32, 308.09 -184.86, 379.84 -267.4 M223.69 -87.77 C266.02 -136.46, 308.34 -185.15, 379.84 -267.4 M228.02 -86.66 C277.51 -143.58, 326.99 -200.5, 380.23 -261.75 M228.02 -86.66 C265.59 -129.87, 303.15 -173.08, 380.23 -261.75 M233.67 -87.05 C290.28 -152.18, 346.89 -217.3, 380.62 -256.11 M233.67 -87.05 C280.93 -141.43, 328.2 -195.8, 380.62 -256.11 M238.65 -86.69 C268.25 -120.74, 297.85 -154.79, 381.02 -250.47 M238.65 -86.69 C277.81 -131.73, 316.96 -176.77, 381.02 -250.47 M244.3 -87.09 C276.98 -124.68, 309.66 -162.27, 380.76 -244.07 M244.3 -87.09 C281.46 -129.83, 318.61 -172.58, 380.76 -244.07 M251.25 -88.99 C285.72 -128.64, 320.19 -168.29, 381.15 -238.43 M251.25 -88.99 C279.16 -121.1, 307.07 -153.2, 381.15 -238.43 M257.55 -90.14 C289.61 -127.02, 321.67 -163.91, 380.89 -232.03 M257.55 -90.14 C293.3 -131.27, 329.05 -172.39, 380.89 -232.03 M261.88 -89.03 C289.38 -120.66, 316.88 -152.3, 378.01 -222.61 M261.88 -89.03 C299.11 -131.85, 336.33 -174.67, 378.01 -222.61 M270.81 -93.2 C302.34 -129.47, 333.88 -165.75, 376.43 -214.7 M270.81 -93.2 C304.19 -131.6, 337.58 -170.01, 376.43 -214.7 M278.42 -95.85 C306.08 -127.68, 333.74 -159.5, 374.86 -206.8 M278.42 -95.85 C299.78 -120.43, 321.14 -145, 374.86 -206.8 M293.25 -106.81 C311.23 -127.51, 329.22 -148.2, 370.66 -195.87 M293.25 -106.81 C313.98 -130.67, 334.71 -154.52, 370.66 -195.87 M308.73 -118.53 C321.5 -133.22, 334.26 -147.9, 371.05 -190.23 M308.73 -118.53 C328.8 -141.61, 348.86 -164.7, 371.05 -190.23" stroke="#ffc9c9" stroke-width="0.5" fill="none"></path><path d="M0 0 C2 -20, -0.33 -86.5, 12 -120 C24.33 -153.5, 50.5 -186.83, 74 -201 C97.5 -215.17, 131.33 -212.33, 153 -205 C174.67 -197.67, 190.33 -159.17, 204 -157 C217.67 -154.83, 229.33 -172.83, 235 -192 C240.67 -211.17, 228.67 -251.33, 238 -272 C247.33 -292.67, 269.5 -309.5, 291 -316 C312.5 -322.5, 354 -331.67, 367 -311 C380 -290.33, 386.83 -228.67, 369 -192 C351.17 -155.33, 300 -106.5, 260 -91 C220 -75.5, 162.33 -112.67, 129 -99 C95.67 -85.33, 77 -29.17, 60 -9 C43 11.17, 37 20.5, 27 22 C17 23.5, 4.5 3.67, 0 0 M0 0 C2 -20, -0.33 -86.5, 12 -120 C24.33 -153.5, 50.5 -186.83, 74 -201 C97.5 -215.17, 131.33 -212.33, 153 -205 C174.67 -197.67, 190.33 -159.17, 204 -157 C217.67 -154.83, 229.33 -172.83, 235 -192 C240.67 -211.17, 228.67 -251.33, 238 -272 C247.33 -292.67, 269.5 -309.5, 291 -316 C312.5 -322.5, 354 -331.67, 367 -311 C380 -290.33, 386.83 -228.67, 369 -192 C351.17 -155.33, 300 -106.5, 260 -91 C220 -75.5, 162.33 -112.67, 129 -99 C95.67 -85.33, 77 -29.17, 60 -9 C43 11.17, 37 20.5, 27 22 C17 23.5, 4.5 3.67, 0 0" stroke="#e03131" stroke-width="1" fill="none"></path></g></g><mask></mask><g stroke-linecap="round" transform="translate(10 516.0790286017422) rotate(0 203 163)"><path d="M-0.31 -0.99 C81.54 3.18, 163.99 2.27, 407.04 0.26 M0.48 -0.38 C154.86 -1.24, 310.51 -1.76, 405.75 -0.06 M406.26 -0.6 C408.09 68.74, 408.31 136.22, 406.35 326.7 M406.61 -0.25 C406.59 123.26, 407.03 247.71, 406.08 326.46 M405.88 325.97 C259.21 328.58, 115.27 327.52, 0.28 325.55 M406.08 326.41 C272.82 324.15, 140.79 323.91, 0.15 325.67 M-0.75 326.63 C-0.37 197.88, -0.41 70.53, 0.76 1.16 M-0.26 325.8 C1.88 242.37, 2.09 157.14, 0.51 -0.5" stroke="#1e1e1e" stroke-width="1" fill="none"></path></g><g stroke-linecap="round"><g transform="translate(280 557.0790286017422) rotate(0 -22.182945787649032 132)"><path d="M0 0 C-7.33 20.17, -40.5 77, -44 121 C-47.5 165, -24.83 240.17, -21 264 M0 0 C-7.33 20.17, -40.5 77, -44 121 C-47.5 165, -24.83 240.17, -21 264" stroke="#1e1e1e" stroke-width="2" fill="none"></path></g></g><mask></mask><g stroke-linecap="round"><g transform="translate(236 528.0790286017422) rotate(0 28.664300105102654 153.40570720344306)"><path d="M0 0 C-5.33 11.17, -25.5 33.67, -32 67 C-38.5 100.33, -41 160.83, -39 200 C-37 239.17, -33.83 282.83, -20 302 C-6.17 321.17, 27.33 315, 44 315 C60.67 315, 75.33 316.67, 80 302 C84.67 287.33, 76.83 253.67, 72 227 C67.17 200.33, 49.5 172, 51 142 C52.5 112, 73.67 70.83, 81 47 C88.33 23.17, 102.17 8.33, 95 -1 C87.83 -10.33, 53.83 -9.17, 38 -9 C22.17 -8.83, 6.33 -1.5, 0 0" stroke="#1e1e1e" stroke-width="1.5" fill="none" stroke-dasharray="8 9"></path></g></g><mask></mask><g stroke-linecap="round"><g transform="translate(284 594.0790286017422) rotate(0 -23 -13.5)"><path d="M0 0 C-7.67 -4.5, -38.33 -22.5, -46 -27 M0 0 C-7.67 -4.5, -38.33 -22.5, -46 -27" stroke="#1e1e1e" stroke-width="1" fill="none"></path></g><g transform="translate(284 594.0790286017422) rotate(0 -23 -13.5)"><path d="M-19.77 -22.18 C-27.99 -23.69, -36.2 -25.2, -46 -27 M-19.77 -22.18 C-30.05 -24.07, -40.33 -25.96, -46 -27" stroke="#1e1e1e" stroke-width="1" fill="none"></path></g><g transform="translate(284 594.0790286017422) rotate(0 -23 -13.5)"><path d="M-29 -6.45 C-34.33 -12.89, -39.65 -19.32, -46 -27 M-29 -6.45 C-35.66 -14.5, -42.32 -22.55, -46 -27" stroke="#1e1e1e" stroke-width="1" fill="none"></path></g></g><mask></mask><g stroke-linecap="round"><g transform="translate(271 669.0790286017422) rotate(0 -30.5 -1)"><path d="M0 0 C-10.17 -0.33, -50.83 -1.67, -61 -2 M0 0 C-10.17 -0.33, -50.83 -1.67, -61 -2" stroke="#1e1e1e" stroke-width="1" fill="none"></path></g><g transform="translate(271 669.0790286017422) rotate(0 -30.5 -1)"><path d="M-32.49 -11.33 C-40.48 -8.72, -48.47 -6.1, -61 -2 M-32.49 -11.33 C-42.44 -8.07, -52.4 -4.82, -61 -2" stroke="#1e1e1e" stroke-width="1" fill="none"></path></g><g transform="translate(271 669.0790286017422) rotate(0 -30.5 -1)"><path d="M-33.16 9.18 C-40.96 6.05, -48.76 2.91, -61 -2 M-33.16 9.18 C-42.88 5.28, -52.6 1.37, -61 -2" stroke="#1e1e1e" stroke-width="1" fill="none"></path></g></g><mask></mask><g stroke-linecap="round"><g transform="translate(293 778.0790286017422) rotate(0 -37.5 8)"><path d="M0 0 C-12.5 2.67, -62.5 13.33, -75 16 M0 0 C-12.5 2.67, -62.5 13.33, -75 16" stroke="#1e1e1e" stroke-width="1" fill="none"></path></g><g transform="translate(293 778.0790286017422) rotate(0 -37.5 8)"><path d="M-49.57 0.08 C-58.45 5.64, -67.33 11.2, -75 16 M-49.57 0.08 C-59.65 6.39, -69.73 12.7, -75 16" stroke="#1e1e1e" stroke-width="1" fill="none"></path></g><g transform="translate(293 778.0790286017422) rotate(0 -37.5 8)"><path d="M-45.29 20.15 C-55.66 18.7, -66.04 17.25, -75 16 M-45.29 20.15 C-57.07 18.51, -68.85 16.86, -75 16" stroke="#1e1e1e" stroke-width="1" fill="none"></path></g></g><mask></mask><g stroke-linecap="round" transform="translate(591.3333333333333 45.745695268408554) rotate(0 203 163)"><path d="M-1 0.65 C131.8 -1.99, 263.84 -2.52, 406.09 0.15 M-0.49 0.55 C143.69 -2.04, 288.19 -1.81, 406.1 0.51 M406.75 -0.06 C407.46 97.99, 408.76 197.13, 406.85 325.72 M405.5 0.46 C407.6 101.83, 408.28 203.99, 405.62 326.19 M405.89 327.04 C306.05 326.73, 206.42 326.48, -0.66 325.79 M406.2 326.02 C288.7 325.72, 172.37 324.75, 0.35 325.66 M-0.82 327.29 C0.37 256.35, 0.3 186.62, -0.83 0.86 M0.46 326.21 C2.42 250.34, 1.51 174.77, 0.37 -0.57" stroke="#1e1e1e" stroke-width="1" fill="none"></path></g><g stroke-linecap="round" transform="translate(633.3333333333333 317.74569526840855) rotate(0 8 8)"><path d="M16 8 C16 8.46, 15.96 8.93, 15.88 9.39 C15.8 9.85, 15.68 10.3, 15.52 10.74 C15.36 11.17, 15.16 11.6, 14.93 12 C14.7 12.4, 14.43 12.79, 14.13 13.14 C13.83 13.5, 13.5 13.83, 13.14 14.13 C12.79 14.43, 12.4 14.7, 12 14.93 C11.6 15.16, 11.17 15.36, 10.74 15.52 C10.3 15.68, 9.85 15.8, 9.39 15.88 C8.93 15.96, 8.46 16, 8 16 C7.54 16, 7.07 15.96, 6.61 15.88 C6.15 15.8, 5.7 15.68, 5.26 15.52 C4.83 15.36, 4.4 15.16, 4 14.93 C3.6 14.7, 3.21 14.43, 2.86 14.13 C2.5 13.83, 2.17 13.5, 1.87 13.14 C1.57 12.79, 1.3 12.4, 1.07 12 C0.84 11.6, 0.64 11.17, 0.48 10.74 C0.32 10.3, 0.2 9.85, 0.12 9.39 C0.04 8.93, 0 8.46, 0 8 C0 7.54, 0.04 7.07, 0.12 6.61 C0.2 6.15, 0.32 5.7, 0.48 5.26 C0.64 4.83, 0.84 4.4, 1.07 4 C1.3 3.6, 1.57 3.21, 1.87 2.86 C2.17 2.5, 2.5 2.17, 2.86 1.87 C3.21 1.57, 3.6 1.3, 4 1.07 C4.4 0.84, 4.83 0.64, 5.26 0.48 C5.7 0.32, 6.15 0.2, 6.61 0.12 C7.07 0.04, 7.54 0, 8 0 C8.46 0, 8.93 0.04, 9.39 0.12 C9.85 0.2, 10.3 0.32, 10.74 0.48 C11.17 0.64, 11.6 0.84, 12 1.07 C12.4 1.3, 12.79 1.57, 13.14 1.87 C13.5 2.17, 13.83 2.5, 14.13 2.86 C14.43 3.21, 14.7 3.6, 14.93 4 C15.16 4.4, 15.36 4.83, 15.52 5.26 C15.68 5.7, 15.8 6.15, 15.88 6.61 C15.96 7.07, 15.98 7.77, 16 8 C16.02 8.23, 16.02 7.77, 16 8" stroke="none" stroke-width="0" fill="#1e1e1e"></path><path d="M16 8 C16 8.46, 15.96 8.93, 15.88 9.39 C15.8 9.85, 15.68 10.3, 15.52 10.74 C15.36 11.17, 15.16 11.6, 14.93 12 C14.7 12.4, 14.43 12.79, 14.13 13.14 C13.83 13.5, 13.5 13.83, 13.14 14.13 C12.79 14.43, 12.4 14.7, 12 14.93 C11.6 15.16, 11.17 15.36, 10.74 15.52 C10.3 15.68, 9.85 15.8, 9.39 15.88 C8.93 15.96, 8.46 16, 8 16 C7.54 16, 7.07 15.96, 6.61 15.88 C6.15 15.8, 5.7 15.68, 5.26 15.52 C4.83 15.36, 4.4 15.16, 4 14.93 C3.6 14.7, 3.21 14.43, 2.86 14.13 C2.5 13.83, 2.17 13.5, 1.87 13.14 C1.57 12.79, 1.3 12.4, 1.07 12 C0.84 11.6, 0.64 11.17, 0.48 10.74 C0.32 10.3, 0.2 9.85, 0.12 9.39 C0.04 8.93, 0 8.46, 0 8 C0 7.54, 0.04 7.07, 0.12 6.61 C0.2 6.15, 0.32 5.7, 0.48 5.26 C0.64 4.83, 0.84 4.4, 1.07 4 C1.3 3.6, 1.57 3.21, 1.87 2.86 C2.17 2.5, 2.5 2.17, 2.86 1.87 C3.21 1.57, 3.6 1.3, 4 1.07 C4.4 0.84, 4.83 0.64, 5.26 0.48 C5.7 0.32, 6.15 0.2, 6.61 0.12 C7.07 0.04, 7.54 0, 8 0 C8.46 0, 8.93 0.04, 9.39 0.12 C9.85 0.2, 10.3 0.32, 10.74 0.48 C11.17 0.64, 11.6 0.84, 12 1.07 C12.4 1.3, 12.79 1.57, 13.14 1.87 C13.5 2.17, 13.83 2.5, 14.13 2.86 C14.43 3.21, 14.7 3.6, 14.93 4 C15.16 4.4, 15.36 4.83, 15.52 5.26 C15.68 5.7, 15.8 6.15, 15.88 6.61 C15.96 7.07, 15.98 7.77, 16 8 C16.02 8.23, 16.02 7.77, 16 8" stroke="#1e1e1e" stroke-width="1" fill="none"></path></g><g stroke-linecap="round" transform="translate(875.3333333333333 93.74569526840855) rotate(0 8 8)"><path d="M16 8 C16 8.46, 15.96 8.93, 15.88 9.39 C15.8 9.85, 15.68 10.3, 15.52 10.74 C15.36 11.17, 15.16 11.6, 14.93 12 C14.7 12.4, 14.43 12.79, 14.13 13.14 C13.83 13.5, 13.5 13.83, 13.14 14.13 C12.79 14.43, 12.4 14.7, 12 14.93 C11.6 15.16, 11.17 15.36, 10.74 15.52 C10.3 15.68, 9.85 15.8, 9.39 15.88 C8.93 15.96, 8.46 16, 8 16 C7.54 16, 7.07 15.96, 6.61 15.88 C6.15 15.8, 5.7 15.68, 5.26 15.52 C4.83 15.36, 4.4 15.16, 4 14.93 C3.6 14.7, 3.21 14.43, 2.86 14.13 C2.5 13.83, 2.17 13.5, 1.87 13.14 C1.57 12.79, 1.3 12.4, 1.07 12 C0.84 11.6, 0.64 11.17, 0.48 10.74 C0.32 10.3, 0.2 9.85, 0.12 9.39 C0.04 8.93, 0 8.46, 0 8 C0 7.54, 0.04 7.07, 0.12 6.61 C0.2 6.15, 0.32 5.7, 0.48 5.26 C0.64 4.83, 0.84 4.4, 1.07 4 C1.3 3.6, 1.57 3.21, 1.87 2.86 C2.17 2.5, 2.5 2.17, 2.86 1.87 C3.21 1.57, 3.6 1.3, 4 1.07 C4.4 0.84, 4.83 0.64, 5.26 0.48 C5.7 0.32, 6.15 0.2, 6.61 0.12 C7.07 0.04, 7.54 0, 8 0 C8.46 0, 8.93 0.04, 9.39 0.12 C9.85 0.2, 10.3 0.32, 10.74 0.48 C11.17 0.64, 11.6 0.84, 12 1.07 C12.4 1.3, 12.79 1.57, 13.14 1.87 C13.5 2.17, 13.83 2.5, 14.13 2.86 C14.43 3.21, 14.7 3.6, 14.93 4 C15.16 4.4, 15.36 4.83, 15.52 5.26 C15.68 5.7, 15.8 6.15, 15.88 6.61 C15.96 7.07, 15.98 7.77, 16 8 C16.02 8.23, 16.02 7.77, 16 8" stroke="none" stroke-width="0" fill="#1e1e1e"></path><path d="M16 8 C16 8.46, 15.96 8.93, 15.88 9.39 C15.8 9.85, 15.68 10.3, 15.52 10.74 C15.36 11.17, 15.16 11.6, 14.93 12 C14.7 12.4, 14.43 12.79, 14.13 13.14 C13.83 13.5, 13.5 13.83, 13.14 14.13 C12.79 14.43, 12.4 14.7, 12 14.93 C11.6 15.16, 11.17 15.36, 10.74 15.52 C10.3 15.68, 9.85 15.8, 9.39 15.88 C8.93 15.96, 8.46 16, 8 16 C7.54 16, 7.07 15.96, 6.61 15.88 C6.15 15.8, 5.7 15.68, 5.26 15.52 C4.83 15.36, 4.4 15.16, 4 14.93 C3.6 14.7, 3.21 14.43, 2.86 14.13 C2.5 13.83, 2.17 13.5, 1.87 13.14 C1.57 12.79, 1.3 12.4, 1.07 12 C0.84 11.6, 0.64 11.17, 0.48 10.74 C0.32 10.3, 0.2 9.85, 0.12 9.39 C0.04 8.93, 0 8.46, 0 8 C0 7.54, 0.04 7.07, 0.12 6.61 C0.2 6.15, 0.32 5.7, 0.48 5.26 C0.64 4.83, 0.84 4.4, 1.07 4 C1.3 3.6, 1.57 3.21, 1.87 2.86 C2.17 2.5, 2.5 2.17, 2.86 1.87 C3.21 1.57, 3.6 1.3, 4 1.07 C4.4 0.84, 4.83 0.64, 5.26 0.48 C5.7 0.32, 6.15 0.2, 6.61 0.12 C7.07 0.04, 7.54 0, 8 0 C8.46 0, 8.93 0.04, 9.39 0.12 C9.85 0.2, 10.3 0.32, 10.74 0.48 C11.17 0.64, 11.6 0.84, 12 1.07 C12.4 1.3, 12.79 1.57, 13.14 1.87 C13.5 2.17, 13.83 2.5, 14.13 2.86 C14.43 3.21, 14.7 3.6, 14.93 4 C15.16 4.4, 15.36 4.83, 15.52 5.26 C15.68 5.7, 15.8 6.15, 15.88 6.61 C15.96 7.07, 15.98 7.77, 16 8 C16.02 8.23, 16.02 7.77, 16 8" stroke="#1e1e1e" stroke-width="1" fill="none"></path></g><g stroke-linecap="round"><g transform="translate(642.3333333333333 321.74569526840855) rotate(0 120.5 -109.5)"><path d="M0 0 C9.5 -21.5, 23.67 -107.83, 57 -129 C90.33 -150.17, 169.33 -112, 200 -127 C230.67 -142, 234.17 -203.67, 241 -219 M0 0 C9.5 -21.5, 23.67 -107.83, 57 -129 C90.33 -150.17, 169.33 -112, 200 -127 C230.67 -142, 234.17 -203.67, 241 -219" stroke="#1e1e1e" stroke-width="2" fill="none"></path></g></g><mask></mask><g stroke-linecap="round"><g transform="translate(611.3333333333333 313.74569526840855) rotate(0 154.53477993228682 -102.63285200766853)"><path d="M0 0 C7.17 -23.17, 7.5 -113, 43 -139 C78.5 -165, 177.83 -139.83, 213 -156 C248.17 -172.17, 242.33 -220.5, 254 -236 C265.67 -251.5, 273.83 -255.17, 283 -249 C292.17 -242.83, 310.33 -223.17, 309 -199 C307.67 -174.83, 293.17 -124.5, 275 -104 C256.83 -83.5, 225.33 -79.33, 200 -76 C174.67 -72.67, 143.83 -93.67, 123 -84 C102.17 -74.33, 85.33 -35.83, 75 -18 C64.67 -0.17, 71.5 12.33, 61 23 C50.5 33.67, 22.17 49.83, 12 46 C1.83 42.17, 2 7.67, 0 0" stroke="#1e1e1e" stroke-width="1.5" fill="none" stroke-dasharray="8 9"></path></g></g><mask></mask><g stroke-linecap="round"><g transform="translate(643.3333333333333 319.74569526840855) rotate(0 13.5 -43.5)"><path d="M0 0 C4.5 -14.5, 22.5 -72.5, 27 -87 M0 0 C4.5 -14.5, 22.5 -72.5, 27 -87" stroke="#1e1e1e" stroke-width="1" fill="none"></path></g><g transform="translate(643.3333333333333 319.74569526840855) rotate(0 13.5 -43.5)"><path d="M28.44 -57.03 C27.99 -66.41, 27.54 -75.79, 27 -87 M28.44 -57.03 C27.88 -68.79, 27.31 -80.54, 27 -87" stroke="#1e1e1e" stroke-width="1" fill="none"></path></g><g transform="translate(643.3333333333333 319.74569526840855) rotate(0 13.5 -43.5)"><path d="M8.84 -63.12 C14.53 -70.59, 20.21 -78.07, 27 -87 M8.84 -63.12 C15.97 -72.49, 23.09 -81.86, 27 -87" stroke="#1e1e1e" stroke-width="1" fill="none"></path></g></g><mask></mask><g stroke-linecap="round"><g transform="translate(728.3333333333333 186.74569526840855) rotate(0 44.5 6)"><path d="M0 0 C14.83 2, 74.17 10, 89 12 M0 0 C14.83 2, 74.17 10, 89 12" stroke="#1e1e1e" stroke-width="1" fill="none"></path></g><g transform="translate(728.3333333333333 186.74569526840855) rotate(0 44.5 6)"><path d="M59.69 18.4 C70.84 15.97, 81.98 13.53, 89 12 M59.69 18.4 C70.64 16.01, 81.58 13.62, 89 12" stroke="#1e1e1e" stroke-width="1" fill="none"></path></g><g transform="translate(728.3333333333333 186.74569526840855) rotate(0 44.5 6)"><path d="M62.43 -1.94 C72.53 3.36, 82.64 8.66, 89 12 M62.43 -1.94 C72.35 3.27, 82.27 8.47, 89 12" stroke="#1e1e1e" stroke-width="1" fill="none"></path></g></g><mask></mask><g stroke-linecap="round"><g transform="translate(855.3333333333333 181.74569526840855) rotate(0 11 -27.5)"><path d="M0 0 C3.67 -9.17, 18.33 -45.83, 22 -55 M0 0 C3.67 -9.17, 18.33 -45.83, 22 -55" stroke="#1e1e1e" stroke-width="1" fill="none"></path></g><g transform="translate(855.3333333333333 181.74569526840855) rotate(0 11 -27.5)"><path d="M21.07 -25.4 C21.27 -31.68, 21.46 -37.95, 22 -55 M21.07 -25.4 C21.4 -35.88, 21.73 -46.37, 22 -55" stroke="#1e1e1e" stroke-width="1" fill="none"></path></g><g transform="translate(855.3333333333333 181.74569526840855) rotate(0 11 -27.5)"><path d="M2.26 -32.92 C6.45 -37.6, 10.63 -42.29, 22 -55 M2.26 -32.92 C9.25 -40.74, 16.24 -48.56, 22 -55" stroke="#1e1e1e" stroke-width="1" fill="none"></path></g></g><mask></mask><g stroke-linecap="round" transform="translate(600.3333333333333 502.7730227974995) rotate(0 203 163)"><path d="M-0.42 1.04 C113.96 2.6, 229.05 0.7, 406 0.39 M-0.03 0.08 C124.98 0.67, 250.32 1.35, 406.11 -0.02 M405.92 -0.78 C408.24 96.64, 407 194.33, 405.9 324.83 M405.9 0.03 C405.09 104.6, 406.11 208.44, 405.35 326.48 M406.56 326.55 C259.59 323.11, 111.67 323.42, 0.27 326.51 M406.54 325.77 C262.42 324.88, 118.57 324.75, -0.4 326.52 M1.14 324.95 C-1.34 226.57, -2.81 126.3, -1.1 0.56 M-0.51 325.5 C1.98 229.29, 2.61 132.96, -0.43 0.62" stroke="#1e1e1e" stroke-width="1" fill="none"></path></g><g stroke-linecap="round"><g transform="translate(870.3333333333333 543.7730227974995) rotate(0 -22.182945787649032 132)"><path d="M0 0 C-7.33 20.17, -40.5 77, -44 121 C-47.5 165, -24.83 240.17, -21 264 M0 0 C-7.33 20.17, -40.5 77, -44 121 C-47.5 165, -24.83 240.17, -21 264" stroke="#1e1e1e" stroke-width="2" fill="none"></path></g></g><mask></mask><g stroke-linecap="round"><g transform="translate(826.3333333333333 514.7730227974995) rotate(0 28.66430010510271 153.40570720344306)"><path d="M0 0 C-5.33 11.17, -25.5 33.67, -32 67 C-38.5 100.33, -41 160.83, -39 200 C-37 239.17, -33.83 282.83, -20 302 C-6.17 321.17, 27.33 315, 44 315 C60.67 315, 75.33 316.67, 80 302 C84.67 287.33, 76.83 253.67, 72 227 C67.17 200.33, 49.5 172, 51 142 C52.5 112, 73.67 70.83, 81 47 C88.33 23.17, 102.17 8.33, 95 -1 C87.83 -10.33, 53.83 -9.17, 38 -9 C22.17 -8.83, 6.33 -1.5, 0 0" stroke="#1e1e1e" stroke-width="1.5" fill="none" stroke-dasharray="8 9"></path></g></g><mask></mask><g stroke-linecap="round"><g transform="translate(874.3333333333333 580.773022797499) rotate(0 -23 -13.5)"><path d="M0 0 C-7.67 -4.5, -38.33 -22.5, -46 -27 M0 0 C-7.67 -4.5, -38.33 -22.5, -46 -27" stroke="#1e1e1e" stroke-width="1" fill="none"></path></g><g transform="translate(874.3333333333333 580.773022797499) rotate(0 -23 -13.5)"><path d="M-19.77 -22.18 C-29.57 -23.98, -39.37 -25.78, -46 -27 M-19.77 -22.18 C-25.82 -23.29, -31.87 -24.4, -46 -27" stroke="#1e1e1e" stroke-width="1" fill="none"></path></g><g transform="translate(874.3333333333333 580.773022797499) rotate(0 -23 -13.5)"><path d="M-29 -6.45 C-35.36 -14.13, -41.71 -21.81, -46 -27 M-29 -6.45 C-32.92 -11.19, -36.84 -15.93, -46 -27" stroke="#1e1e1e" stroke-width="1" fill="none"></path></g></g><mask></mask><g stroke-linecap="round"><g transform="translate(861.3333333333333 655.773022797499) rotate(0 -30.5 -1)"><path d="M0 0 C-10.17 -0.33, -50.83 -1.67, -61 -2 M0 0 C-10.17 -0.33, -50.83 -1.67, -61 -2" stroke="#1e1e1e" stroke-width="1" fill="none"></path></g><g transform="translate(861.3333333333333 655.773022797499) rotate(0 -30.5 -1)"><path d="M-32.49 -11.33 C-38.27 -9.44, -44.05 -7.55, -61 -2 M-32.49 -11.33 C-42.59 -8.03, -52.69 -4.72, -61 -2" stroke="#1e1e1e" stroke-width="1" fill="none"></path></g><g transform="translate(861.3333333333333 655.773022797499) rotate(0 -30.5 -1)"><path d="M-33.16 9.18 C-38.81 6.91, -44.45 4.65, -61 -2 M-33.16 9.18 C-43.02 5.22, -52.89 1.26, -61 -2" stroke="#1e1e1e" stroke-width="1" fill="none"></path></g></g><mask></mask><g stroke-linecap="round"><g transform="translate(883.3333333333333 764.773022797499) rotate(0 -37.5 8)"><path d="M0 0 C-12.5 2.67, -62.5 13.33, -75 16 M0 0 C-12.5 2.67, -62.5 13.33, -75 16" stroke="#1e1e1e" stroke-width="1" fill="none"></path></g><g transform="translate(883.3333333333333 764.773022797499) rotate(0 -37.5 8)"><path d="M-49.57 0.08 C-58.08 5.41, -66.59 10.74, -75 16 M-49.57 0.08 C-57.13 4.82, -64.69 9.55, -75 16" stroke="#1e1e1e" stroke-width="1" fill="none"></path></g><g transform="translate(883.3333333333333 764.773022797499) rotate(0 -37.5 8)"><path d="M-45.29 20.15 C-55.23 18.76, -65.18 17.37, -75 16 M-45.29 20.15 C-54.12 18.92, -62.95 17.68, -75 16" stroke="#1e1e1e" stroke-width="1" fill="none"></path></g></g><mask></mask><g stroke-linecap="round"><g transform="translate(816.3333333333333 651.745695268408) rotate(0 70.48696340075423 20.80742692543663)" fill-rule="evenodd"><path d="M56.02 -126.2 C56.02 -126.2, 56.02 -126.2, 56.02 -126.2 M56.02 -126.2 C56.02 -126.2, 56.02 -126.2, 56.02 -126.2 M53.79 -117.54 C58.65 -123.12, 63.5 -128.7, 66.92 -132.63 M53.79 -117.54 C56.71 -120.89, 59.63 -124.25, 66.92 -132.63 M43.04 -99.07 C53.11 -110.66, 63.19 -122.25, 75.84 -136.8 M43.04 -99.07 C51.53 -108.83, 60.02 -118.6, 75.84 -136.8 M36.21 -85.12 C54.11 -105.7, 72 -126.29, 82.79 -138.71 M36.21 -85.12 C46.95 -97.48, 57.69 -109.83, 82.79 -138.71 M32.02 -74.2 C53.89 -99.36, 75.76 -124.52, 87.78 -138.35 M32.02 -74.2 C50.56 -95.53, 69.1 -116.86, 87.78 -138.35 M27.82 -63.27 C48.1 -86.6, 68.39 -109.94, 92.77 -137.99 M27.82 -63.27 C43.78 -81.63, 59.73 -99.98, 92.77 -137.99 M23.62 -52.34 C50.13 -82.84, 76.64 -113.34, 96.44 -136.12 M23.62 -52.34 C44.52 -76.38, 65.42 -100.43, 96.44 -136.12 M19.42 -41.42 C40.28 -65.41, 61.13 -89.39, 100.77 -135 M19.42 -41.42 C48.65 -75.04, 77.88 -108.67, 100.77 -135 M14.57 -29.74 C35.72 -54.07, 56.87 -78.39, 103.79 -132.38 M14.57 -29.74 C41.47 -60.68, 68.37 -91.63, 103.79 -132.38 M10.37 -18.81 C43.46 -56.88, 76.55 -94.95, 106.81 -129.75 M10.37 -18.81 C33.35 -45.25, 56.33 -71.68, 106.81 -129.75 M6.17 -7.88 C32.15 -37.77, 58.13 -67.66, 109.83 -127.13 M6.17 -7.88 C40.42 -47.28, 74.66 -86.67, 109.83 -127.13 M2.63 2.29 C38.41 -38.88, 74.2 -80.04, 112.85 -124.5 M2.63 2.29 C38.38 -38.84, 74.13 -79.96, 112.85 -124.5 M-1.57 13.21 C29.89 -22.97, 61.34 -59.15, 115.21 -121.13 M-1.57 13.21 C33.8 -27.47, 69.17 -68.16, 115.21 -121.13 M-3.8 21.88 C42.07 -30.88, 87.93 -83.64, 117.57 -117.75 M-3.8 21.88 C24.65 -10.85, 53.09 -43.57, 117.57 -117.75 M-3.4 27.52 C43.53 -26.47, 90.47 -80.47, 119.28 -113.61 M-3.4 27.52 C36.26 -18.11, 75.93 -63.74, 119.28 -113.61 M-3.01 33.16 C34.78 -10.31, 72.56 -53.77, 120.99 -109.48 M-3.01 33.16 C41.64 -18.2, 86.29 -69.56, 120.99 -109.48 M-2.61 38.8 C35.58 -5.13, 73.77 -49.07, 122.69 -105.35 M-2.61 38.8 C31.34 -0.26, 65.3 -39.32, 122.69 -105.35 M-1.56 43.69 C40.28 -4.44, 82.12 -52.58, 124.4 -101.21 M-1.56 43.69 C32.24 4.81, 66.03 -34.07, 124.4 -101.21 M-0.51 48.58 C47.03 -6.11, 94.57 -60.8, 126.11 -97.08 M-0.51 48.58 C24.84 19.42, 50.19 -9.75, 126.11 -97.08 M0.54 53.47 C40.27 7.76, 80 -37.95, 127.81 -92.94 M0.54 53.47 C38.83 9.42, 77.12 -34.63, 127.81 -92.94 M1.59 58.36 C47.28 5.79, 92.98 -46.77, 128.87 -88.06 M1.59 58.36 C44.9 8.54, 88.21 -41.28, 128.87 -88.06 M1.98 64 C43.35 16.42, 84.71 -31.16, 130.57 -83.92 M1.98 64 C50.14 8.6, 98.3 -46.79, 130.57 -83.92 M3.04 68.89 C34.69 32.47, 66.35 -3.94, 132.28 -79.79 M3.04 68.89 C41.22 24.96, 79.41 -18.97, 132.28 -79.79 M4.09 73.78 C38.03 34.73, 71.97 -4.31, 133.33 -74.9 M4.09 73.78 C53.33 17.12, 102.58 -39.53, 133.33 -74.9 M5.14 78.67 C37.14 41.85, 69.15 5.03, 134.38 -70.01 M5.14 78.67 C36.81 42.23, 68.49 5.79, 134.38 -70.01 M5.53 84.31 C39.56 45.16, 73.59 6.02, 135.43 -65.12 M5.53 84.31 C55.84 26.43, 106.15 -31.44, 135.43 -65.12 M6.58 89.2 C33.56 58.17, 60.53 27.14, 137.14 -60.99 M6.58 89.2 C51.42 37.62, 96.25 -13.96, 137.14 -60.99 M7.63 94.09 C43.1 53.28, 78.57 12.48, 138.19 -56.1 M7.63 94.09 C38.32 58.78, 69.01 23.48, 138.19 -56.1 M8.68 98.97 C59.37 40.67, 110.05 -17.64, 139.9 -51.97 M8.68 98.97 C50.64 50.71, 92.6 2.44, 139.9 -51.97 M9.08 104.62 C44.51 63.86, 79.94 23.1, 140.95 -47.08 M9.08 104.62 C54.06 52.87, 99.04 1.13, 140.95 -47.08 M10.13 109.51 C46.54 67.62, 82.95 25.73, 142 -42.19 M10.13 109.51 C46.85 67.26, 83.57 25.02, 142 -42.19 M11.18 114.39 C44.8 75.72, 78.42 37.04, 143.05 -37.3 M11.18 114.39 C50.38 69.3, 89.57 24.21, 143.05 -37.3 M12.23 119.28 C63.74 60.03, 115.24 0.78, 144.1 -32.41 M12.23 119.28 C51.63 73.96, 91.02 28.64, 144.1 -32.41 M13.94 123.42 C47.55 84.75, 81.16 46.08, 144.49 -26.77 M13.94 123.42 C49.22 82.83, 84.51 42.24, 144.49 -26.77 M14.99 128.3 C50.12 87.89, 85.26 47.47, 145.54 -21.88 M14.99 128.3 C45.66 93.02, 76.34 57.73, 145.54 -21.88 M16.04 133.19 C58.88 83.91, 101.72 34.63, 146.59 -16.99 M16.04 133.19 C42.41 102.86, 68.78 72.52, 146.59 -16.99 M17.09 138.08 C52.96 96.81, 88.84 55.55, 146.99 -11.35 M17.09 138.08 C58.19 90.8, 99.28 43.53, 146.99 -11.35 M18.8 142.21 C63.02 91.34, 107.24 40.47, 147.38 -5.71 M18.8 142.21 C45.69 111.27, 72.59 80.33, 147.38 -5.71 M20.5 146.35 C45.98 117.04, 71.45 87.74, 147.12 0.69 M20.5 146.35 C64.48 95.76, 108.45 45.17, 147.12 0.69 M22.21 150.48 C47.99 120.83, 73.76 91.18, 146.86 7.09 M22.21 150.48 C70.03 95.47, 117.85 40.46, 146.86 7.09 M23.26 155.37 C55.33 118.48, 87.4 81.59, 147.25 12.73 M23.26 155.37 C61.33 111.58, 99.4 67.78, 147.25 12.73 M24.97 159.5 C54.86 125.11, 84.76 90.72, 147.65 18.37 M24.97 159.5 C73.08 104.15, 121.2 48.8, 147.65 18.37 M27.33 162.88 C61.71 123.33, 96.1 83.77, 146.73 25.53 M27.33 162.88 C69.1 114.83, 110.87 66.78, 146.73 25.53 M29.69 166.26 C53.27 139.14, 76.85 112.01, 143.85 34.94 M29.69 166.26 C61.27 129.94, 92.84 93.61, 143.85 34.94 M32.71 168.89 C71.46 124.32, 110.2 79.74, 142.27 42.85 M32.71 168.89 C55.18 143.04, 77.64 117.2, 142.27 42.85 M35.07 172.27 C63.67 139.37, 92.26 106.48, 140.04 51.51 M35.07 172.27 C61.7 141.63, 88.34 110.99, 140.04 51.51 M38.09 174.89 C73.64 134, 109.18 93.11, 141.09 56.4 M38.09 174.89 C76.92 130.22, 115.75 85.55, 141.09 56.4 M41.77 176.76 C65.21 149.79, 88.65 122.82, 138.21 65.82 M41.77 176.76 C72.17 141.78, 102.57 106.81, 138.21 65.82 M45.44 178.63 C79.55 139.39, 113.67 100.15, 135.98 74.48 M45.44 178.63 C76.67 142.71, 107.89 106.79, 135.98 74.48 M49.77 179.74 C78.57 146.61, 107.37 113.49, 133.09 83.9 M49.77 179.74 C68.78 157.88, 87.78 136.02, 133.09 83.9 M54.1 180.86 C83.64 146.88, 113.19 112.89, 130.21 93.31 M54.1 180.86 C81.73 149.07, 109.36 117.29, 130.21 93.31 M59.09 181.22 C75.68 162.14, 92.27 143.05, 130.6 98.95 M59.09 181.22 C82.97 153.75, 106.85 126.27, 130.6 98.95 M63.42 182.33 C83.04 159.77, 102.66 137.2, 120.5 116.67 M63.42 182.33 C78.31 165.21, 93.2 148.08, 120.5 116.67 M71.69 178.92 C88.1 160.04, 104.52 141.16, 114.99 129.11 M71.69 178.92 C86.83 161.5, 101.97 144.08, 114.99 129.11 M79.96 175.51 C87.9 166.37, 95.84 157.23, 114.07 136.26 M79.96 175.51 C88.23 165.99, 96.5 156.47, 114.07 136.26" stroke="#ffc9c9" stroke-width="0.5" fill="none"></path><path d="M0 0 C7.67 -18.67, 32.17 -88.83, 46 -112 C59.83 -135.17, 70.67 -139.33, 83 -139 C95.33 -138.67, 109.5 -136, 120 -110 C130.5 -84, 149.83 -28.17, 146 17 C142.17 62.17, 116.5 136.17, 97 161 C77.5 185.83, 45.83 186.67, 29 166 C12.17 145.33, 0.83 64.67, -4 37 C-8.83 9.33, -0.67 6.17, 0 0 M0 0 C7.67 -18.67, 32.17 -88.83, 46 -112 C59.83 -135.17, 70.67 -139.33, 83 -139 C95.33 -138.67, 109.5 -136, 120 -110 C130.5 -84, 149.83 -28.17, 146 17 C142.17 62.17, 116.5 136.17, 97 161 C77.5 185.83, 45.83 186.67, 29 166 C12.17 145.33, 0.83 64.67, -4 37 C-8.83 9.33, -0.67 6.17, 0 0" stroke="#e03131" stroke-width="1" fill="none"></path></g></g><mask></mask></svg>